<svg xmlns="http://www.w3.org/2000/svg" width="375" viewBox="0 0 375 150" height="150" version="1.0"><g fill="#1C2120"><g><g><path d="M 45.984375 -45.265625 C 45.441406 -47.890625 44.71875 -50.578125 43.8125 -53.328125 C 42.90625 -56.085938 41.742188 -58.675781 40.328125 -61.09375 C 38.921875 -63.519531 37.222656 -65.601562 35.234375 -67.34375 C 33.253906 -69.09375 30.953125 -70.238281 28.328125 -70.78125 L 26.21875 -70.78125 C 24.601562 -70.78125 22.988281 -70.796875 21.375 -70.828125 C 19.757812 -70.859375 18.144531 -70.875 16.53125 -70.875 L 12.8125 -70.875 C 11.800781 -70.875 10.773438 -70.84375 9.734375 -70.78125 C 8.691406 -70.71875 7.734375 -70.617188 6.859375 -70.484375 C 5.984375 -70.347656 5.273438 -70.128906 4.734375 -69.828125 C 4.203125 -69.523438 3.9375 -69.132812 3.9375 -68.65625 C 3.863281 -68.257812 3.828125 -67.859375 3.828125 -67.453125 C 3.828125 -67.046875 3.828125 -66.644531 3.828125 -66.25 L 3.828125 -63.828125 C 3.828125 -60.191406 3.925781 -56.609375 4.125 -53.078125 C 4.332031 -49.554688 4.4375 -45.976562 4.4375 -42.34375 L 4.4375 -39.828125 C 4.4375 -39.421875 4.382812 -38.863281 4.28125 -38.15625 C 4.1875 -37.457031 4.070312 -36.566406 3.9375 -35.484375 C 3.9375 -35.359375 3.96875 -35.257812 4.03125 -35.1875 C 4.101562 -35.125 4.140625 -35.054688 4.140625 -34.984375 C 4.140625 -34.847656 4.035156 -34.75 3.828125 -34.6875 C 3.898438 -32 4.019531 -29.410156 4.1875 -26.921875 C 4.351562 -24.429688 4.503906 -21.910156 4.640625 -19.359375 C 4.429688 -18.210938 4.328125 -17.132812 4.328125 -16.125 C 4.328125 -14.519531 4.425781 -12.890625 4.625 -11.234375 C 4.832031 -9.585938 4.9375 -7.925781 4.9375 -6.25 C 4.9375 -6.1875 4.882812 -5.96875 4.78125 -5.59375 C 4.6875 -5.226562 4.585938 -4.828125 4.484375 -4.390625 C 4.378906 -3.953125 4.273438 -3.546875 4.171875 -3.171875 C 4.078125 -2.804688 4.03125 -2.585938 4.03125 -2.515625 C 4.03125 -2.453125 4.066406 -2.421875 4.140625 -2.421875 C 4.203125 -2.421875 4.265625 -2.453125 4.328125 -2.515625 C 4.460938 -2.515625 4.613281 -2.363281 4.78125 -2.0625 C 4.957031 -1.757812 5.046875 -1.578125 5.046875 -1.515625 C 5.046875 -1.378906 4.941406 -1.273438 4.734375 -1.203125 C 4.941406 -1.078125 5.078125 -0.828125 5.140625 -0.453125 C 5.210938 -0.0859375 5.378906 0.09375 5.640625 0.09375 C 5.773438 0.09375 5.875 0.0625 5.9375 0 C 6.007812 -0.0625 6.113281 -0.09375 6.25 -0.09375 C 6.382812 -0.09375 6.550781 -0.0625 6.75 0 C 6.957031 0.0625 7.128906 0.09375 7.265625 0.09375 C 7.398438 0.09375 7.53125 -0.00390625 7.65625 -0.203125 C 7.925781 -0.203125 8.296875 -0.203125 8.765625 -0.203125 C 9.242188 -0.203125 9.851562 -0.164062 10.59375 -0.09375 L 11.703125 -0.09375 C 15.328125 -0.09375 18.96875 -0.125 22.625 -0.1875 C 26.289062 -0.257812 29.835938 -0.296875 33.265625 -0.296875 C 34.484375 -0.898438 35.578125 -1.707031 36.546875 -2.71875 C 37.523438 -3.726562 38.382812 -4.820312 39.125 -6 C 39.863281 -7.175781 40.484375 -8.398438 40.984375 -9.671875 C 41.492188 -10.953125 41.878906 -12.195312 42.140625 -13.40625 C 43.148438 -15.019531 43.941406 -16.800781 44.515625 -18.75 C 45.085938 -20.695312 45.503906 -22.710938 45.765625 -24.796875 C 46.035156 -26.878906 46.203125 -28.992188 46.265625 -31.140625 C 46.335938 -33.296875 46.375 -35.382812 46.375 -37.40625 C 46.375 -38.75 46.335938 -40.054688 46.265625 -41.328125 C 46.203125 -42.609375 46.109375 -43.921875 45.984375 -45.265625 Z M 45.0625 -27.53125 C 44.9375 -26.25 44.875 -25.035156 44.875 -23.890625 C 44.875 -22.753906 44.703125 -21.613281 44.359375 -20.46875 C 44.222656 -19.863281 44.003906 -19.328125 43.703125 -18.859375 C 43.398438 -18.390625 43.25 -17.882812 43.25 -17.34375 C 43.25 -17.007812 43.285156 -16.804688 43.359375 -16.734375 C 42.148438 -14.984375 40.9375 -13.050781 39.71875 -10.9375 C 38.507812 -8.820312 37.164062 -6.925781 35.6875 -5.25 C 35.425781 -4.976562 35.257812 -4.625 35.1875 -4.1875 C 35.125 -3.75 34.957031 -3.53125 34.6875 -3.53125 L 34.375 -3.828125 C 34.3125 -3.492188 34.226562 -3.257812 34.125 -3.125 C 34.03125 -2.988281 33.984375 -2.820312 33.984375 -2.625 C 33.984375 -2.488281 34.015625 -2.382812 34.078125 -2.3125 C 33.472656 -2.3125 32.734375 -2.394531 31.859375 -2.5625 C 30.984375 -2.738281 30.175781 -2.828125 29.4375 -2.828125 C 28.832031 -2.828125 28.5 -2.789062 28.4375 -2.71875 C 28.300781 -3.125 28.03125 -3.328125 27.625 -3.328125 C 27.351562 -3.328125 27.082031 -3.191406 26.8125 -2.921875 C 26.144531 -2.992188 25.660156 -3.046875 25.359375 -3.078125 C 25.054688 -3.109375 24.867188 -3.125 24.796875 -3.125 L 24.796875 -2.625 L 22.78125 -2.625 L 23.296875 -2.828125 C 22.953125 -2.828125 22.222656 -2.773438 21.109375 -2.671875 C 20.003906 -2.566406 18.796875 -2.460938 17.484375 -2.359375 C 16.179688 -2.265625 14.921875 -2.179688 13.703125 -2.109375 C 12.492188 -2.046875 11.625 -2.015625 11.09375 -2.015625 C 10.550781 -2.015625 10.0625 -2.0625 9.625 -2.15625 C 9.1875 -2.257812 8.703125 -2.3125 8.171875 -2.3125 C 8.035156 -2.3125 7.882812 -2.296875 7.71875 -2.265625 C 7.550781 -2.234375 7.398438 -2.21875 7.265625 -2.21875 L 7.15625 -2.515625 L 7.265625 -2.515625 C 7.398438 -2.515625 7.46875 -2.53125 7.46875 -2.5625 C 7.46875 -2.601562 7.53125 -2.65625 7.65625 -2.71875 C 7.59375 -2.71875 7.5625 -2.785156 7.5625 -2.921875 C 7.5625 -3.054688 7.628906 -3.171875 7.765625 -3.265625 C 7.898438 -3.367188 7.96875 -3.488281 7.96875 -3.625 L 7.96875 -5.25 C 7.96875 -6.382812 7.863281 -7.757812 7.65625 -9.375 L 7.359375 -8.265625 C 7.222656 -8.398438 7.101562 -8.648438 7 -9.015625 C 6.90625 -9.390625 6.820312 -9.742188 6.75 -10.078125 C 6.6875 -9.742188 6.632812 -9.375 6.59375 -8.96875 C 6.5625 -8.570312 6.546875 -8.203125 6.546875 -7.859375 C 6.546875 -6.722656 6.648438 -5.71875 6.859375 -4.84375 C 6.253906 -5.78125 6 -6.90625 6.09375 -8.21875 C 6.195312 -9.53125 6.113281 -10.753906 5.84375 -11.890625 C 5.445312 -11.960938 5.25 -12.367188 5.25 -13.109375 C 5.25 -13.441406 5.332031 -13.757812 5.5 -14.0625 C 5.664062 -14.363281 5.75 -14.582031 5.75 -14.71875 L 5.546875 -15.015625 L 5.34375 -14.828125 L 5.34375 -15.328125 L 5.546875 -15.328125 C 5.546875 -15.460938 5.523438 -15.644531 5.484375 -15.875 C 5.453125 -16.113281 5.4375 -16.300781 5.4375 -16.4375 L 5.4375 -17.046875 C 5.4375 -17.171875 5.472656 -17.269531 5.546875 -17.34375 L 5.75 -29.640625 C 5.8125 -32.191406 5.84375 -34.78125 5.84375 -37.40625 C 5.84375 -40.03125 5.878906 -42.617188 5.953125 -45.171875 L 5.953125 -47.390625 C 6.085938 -49.335938 6.1875 -50.898438 6.25 -52.078125 C 6.320312 -53.253906 6.359375 -54.113281 6.359375 -54.65625 L 6.359375 -56.359375 C 6.359375 -57.835938 6.40625 -59.28125 6.5 -60.6875 C 6.601562 -62.101562 6.65625 -63.519531 6.65625 -64.9375 L 6.453125 -68.359375 C 7.460938 -68.429688 8.421875 -68.515625 9.328125 -68.609375 C 10.234375 -68.710938 11.15625 -68.796875 12.09375 -68.859375 C 13.039062 -68.929688 14.117188 -68.984375 15.328125 -69.015625 C 16.535156 -69.046875 17.945312 -69.0625 19.5625 -69.0625 C 20.632812 -69.0625 21.742188 -69.0625 22.890625 -69.0625 C 24.035156 -69.0625 25.175781 -68.925781 26.3125 -68.65625 C 27.457031 -68.394531 28.597656 -67.960938 29.734375 -67.359375 C 30.878906 -66.753906 31.957031 -65.84375 32.96875 -64.625 C 34.851562 -63.6875 36.398438 -62.441406 37.609375 -60.890625 C 38.816406 -59.347656 39.890625 -57.703125 40.828125 -55.953125 L 41.234375 -55.765625 C 42.710938 -52.929688 43.804688 -49.898438 44.515625 -46.671875 C 45.222656 -43.453125 45.578125 -40.128906 45.578125 -36.703125 C 45.578125 -33.546875 45.273438 -30.519531 44.671875 -27.625 Z M 33.171875 -38.109375 C 32.835938 -39.117188 32.5 -40.191406 32.15625 -41.328125 C 31.820312 -42.472656 31.398438 -43.566406 30.890625 -44.609375 C 30.390625 -45.648438 29.738281 -46.570312 28.9375 -47.375 C 28.132812 -48.1875 27.09375 -48.765625 25.8125 -49.109375 C 25.132812 -49.109375 24.457031 -49.125 23.78125 -49.15625 C 23.113281 -49.1875 22.410156 -49.203125 21.671875 -49.203125 L 19.859375 -49.203125 C 19.117188 -49.203125 18.628906 -49.117188 18.390625 -48.953125 C 18.160156 -48.785156 18.046875 -48.332031 18.046875 -47.59375 L 18.046875 -46.28125 C 18.046875 -45.539062 18.0625 -44.882812 18.09375 -44.3125 C 18.132812 -43.738281 18.15625 -43.148438 18.15625 -42.546875 C 18.15625 -41.941406 18.171875 -41.269531 18.203125 -40.53125 C 18.234375 -39.789062 18.25 -38.847656 18.25 -37.703125 C 18.25 -36.160156 18.234375 -34.394531 18.203125 -32.40625 C 18.171875 -30.425781 18.15625 -28.628906 18.15625 -27.015625 L 18.15625 -25.515625 C 18.15625 -24.972656 18.101562 -24.5 18 -24.09375 C 17.894531 -23.695312 17.84375 -23.296875 17.84375 -22.890625 C 17.84375 -21.941406 18.175781 -21.382812 18.84375 -21.21875 C 19.519531 -21.050781 20.226562 -20.96875 20.96875 -20.96875 C 21.707031 -20.96875 22.445312 -20.984375 23.1875 -21.015625 C 23.925781 -21.054688 24.769531 -21.109375 25.71875 -21.171875 C 26.988281 -21.578125 28.09375 -22.28125 29.03125 -23.28125 C 29.976562 -24.289062 30.769531 -25.484375 31.40625 -26.859375 C 32.039062 -28.242188 32.523438 -29.707031 32.859375 -31.25 C 33.203125 -32.800781 33.375 -34.28125 33.375 -35.6875 C 33.375 -36.09375 33.351562 -36.5 33.3125 -36.90625 C 33.28125 -37.3125 33.234375 -37.710938 33.171875 -38.109375 Z M 27.625 -22.6875 C 25.875 -22.144531 24.644531 -21.820312 23.9375 -21.71875 C 23.238281 -21.625 22.585938 -21.578125 21.984375 -21.578125 C 21.242188 -21.578125 20.601562 -21.59375 20.0625 -21.625 C 19.53125 -21.65625 19.0625 -21.773438 18.65625 -21.984375 L 18.34375 -26.21875 C 18.414062 -26.613281 18.453125 -27.03125 18.453125 -27.46875 C 18.453125 -27.90625 18.453125 -28.363281 18.453125 -28.84375 L 18.453125 -46.375 C 18.453125 -47.789062 18.890625 -48.5 19.765625 -48.5 C 19.898438 -48.5 20.050781 -48.476562 20.21875 -48.4375 C 20.382812 -48.40625 20.535156 -48.390625 20.671875 -48.390625 C 20.941406 -48.390625 21.140625 -48.441406 21.265625 -48.546875 C 21.398438 -48.648438 21.570312 -48.703125 21.78125 -48.703125 C 21.914062 -48.703125 22.082031 -48.617188 22.28125 -48.453125 C 22.476562 -48.285156 22.679688 -48.203125 22.890625 -48.203125 C 23.023438 -48.203125 23.257812 -48.21875 23.59375 -48.25 C 23.925781 -48.28125 24.265625 -48.296875 24.609375 -48.296875 C 25.003906 -48.296875 25.367188 -48.226562 25.703125 -48.09375 C 26.046875 -47.957031 26.21875 -47.6875 26.21875 -47.28125 C 27.289062 -46.675781 28.210938 -45.882812 28.984375 -44.90625 C 29.753906 -43.9375 30.375 -42.828125 30.84375 -41.578125 C 31.320312 -40.335938 31.675781 -39.03125 31.90625 -37.65625 C 32.144531 -36.28125 32.296875 -34.882812 32.359375 -33.46875 C 32.097656 -32.53125 31.914062 -31.65625 31.8125 -30.84375 C 31.707031 -30.039062 31.535156 -29.234375 31.296875 -28.421875 C 31.066406 -27.617188 30.679688 -26.765625 30.140625 -25.859375 C 29.609375 -24.953125 28.769531 -23.894531 27.625 -22.6875 Z M 45.0625 -25.3125 L 45.265625 -25.3125 L 45.0625 -25 Z M 45.0625 -25.3125" transform="translate(39.683 82.455)"/></g></g></g><g fill="#1C2120"><g><g><path d="M 26.109375 -25.109375 C 27.859375 -25.035156 29.570312 -24.914062 31.25 -24.75 C 32.9375 -24.582031 34.519531 -24.5 36 -24.5 C 37.269531 -24.5 38.410156 -24.597656 39.421875 -24.796875 C 40.429688 -25.003906 41.304688 -25.476562 42.046875 -26.21875 C 42.316406 -27.09375 42.453125 -28.398438 42.453125 -30.140625 C 42.453125 -31.890625 42.300781 -33.640625 42 -35.390625 C 41.695312 -37.140625 41.410156 -38.785156 41.140625 -40.328125 C 40.535156 -40.660156 40.179688 -41.265625 40.078125 -42.140625 C 39.972656 -43.015625 39.753906 -43.820312 39.421875 -44.5625 C 39.085938 -45.570312 38.414062 -46.515625 37.40625 -47.390625 C 36.394531 -48.265625 35.164062 -49.019531 33.71875 -49.65625 C 32.28125 -50.289062 30.703125 -50.789062 28.984375 -51.15625 C 27.273438 -51.53125 25.546875 -51.71875 23.796875 -51.71875 C 21.984375 -51.71875 20.234375 -51.597656 18.546875 -51.359375 C 16.867188 -51.128906 15.335938 -50.8125 13.953125 -50.40625 C 12.578125 -50.007812 11.382812 -49.554688 10.375 -49.046875 C 9.375 -48.546875 8.640625 -48.0625 8.171875 -47.59375 C 6.085938 -45.570312 4.640625 -42.914062 3.828125 -39.625 C 3.023438 -36.332031 2.625 -32.738281 2.625 -28.84375 L 2.625 -21.671875 C 2.625 -18.515625 3.039062 -15.539062 3.875 -12.75 C 4.71875 -9.96875 5.992188 -7.53125 7.703125 -5.4375 C 9.421875 -3.351562 11.570312 -1.707031 14.15625 -0.5 C 16.75 0.707031 19.796875 1.3125 23.296875 1.3125 C 24.910156 1.3125 26.539062 1.160156 28.1875 0.859375 C 29.832031 0.554688 31.394531 0.117188 32.875 -0.453125 C 34.351562 -1.023438 35.660156 -1.660156 36.796875 -2.359375 C 37.941406 -3.066406 38.882812 -3.828125 39.625 -4.640625 C 40.425781 -5.578125 40.945312 -6.867188 41.1875 -8.515625 C 41.425781 -10.160156 41.546875 -11.859375 41.546875 -13.609375 C 41.546875 -14.753906 41.523438 -15.914062 41.484375 -17.09375 C 41.453125 -18.269531 41.4375 -19.363281 41.4375 -20.375 C 41.164062 -20.101562 40.726562 -19.96875 40.125 -19.96875 C 39.789062 -19.96875 39.238281 -19.96875 38.46875 -19.96875 C 37.695312 -19.96875 36.820312 -19.96875 35.84375 -19.96875 C 34.863281 -19.96875 33.835938 -20 32.765625 -20.0625 C 31.691406 -20.132812 30.71875 -20.238281 29.84375 -20.375 C 29.707031 -18.21875 29.164062 -16.316406 28.21875 -14.671875 C 27.28125 -13.023438 25.671875 -12.203125 23.390625 -12.203125 C 21.640625 -12.203125 20.378906 -12.671875 19.609375 -13.609375 C 18.835938 -14.546875 18.28125 -15.722656 17.9375 -17.140625 C 17.601562 -18.554688 17.367188 -20.050781 17.234375 -21.625 C 17.109375 -23.207031 16.84375 -24.671875 16.4375 -26.015625 C 17.101562 -25.679688 17.753906 -25.445312 18.390625 -25.3125 C 19.035156 -25.175781 19.660156 -25.109375 20.265625 -25.109375 C 20.804688 -25.109375 21.34375 -25.140625 21.875 -25.203125 C 22.414062 -25.273438 22.921875 -25.3125 23.390625 -25.3125 C 23.722656 -25.3125 24.09375 -25.242188 24.5 -25.109375 C 24.90625 -24.972656 25.273438 -24.90625 25.609375 -24.90625 Z M 16.84375 -28.328125 C 16.5 -27.722656 16.160156 -27.421875 15.828125 -27.421875 C 15.691406 -27.421875 15.554688 -27.4375 15.421875 -27.46875 C 15.285156 -27.507812 15.148438 -27.53125 15.015625 -27.53125 C 14.484375 -25.582031 14.21875 -23.867188 14.21875 -22.390625 C 14.21875 -20.835938 14.414062 -19.285156 14.8125 -17.734375 C 15.21875 -16.191406 15.804688 -14.816406 16.578125 -13.609375 C 17.359375 -12.398438 18.316406 -11.410156 19.453125 -10.640625 C 20.597656 -9.867188 21.910156 -9.484375 23.390625 -9.484375 C 24.671875 -9.484375 25.742188 -9.816406 26.609375 -10.484375 C 27.484375 -11.160156 28.222656 -12 28.828125 -13 C 29.441406 -14.007812 29.96875 -15.101562 30.40625 -16.28125 C 30.84375 -17.457031 31.257812 -18.515625 31.65625 -19.453125 C 32 -19.390625 32.285156 -19.359375 32.515625 -19.359375 C 32.753906 -19.359375 33.003906 -19.359375 33.265625 -19.359375 L 36.90625 -19.359375 C 37.4375 -19.359375 37.972656 -19.34375 38.515625 -19.3125 C 39.054688 -19.28125 39.660156 -19.226562 40.328125 -19.15625 C 40.328125 -13.644531 39.148438 -9.109375 36.796875 -5.546875 C 35.992188 -4.535156 35.253906 -3.742188 34.578125 -3.171875 C 33.910156 -2.597656 33.140625 -2.160156 32.265625 -1.859375 C 31.390625 -1.554688 30.328125 -1.367188 29.078125 -1.296875 C 27.835938 -1.234375 26.242188 -1.203125 24.296875 -1.203125 C 23.148438 -1.203125 21.988281 -1.21875 20.8125 -1.25 C 19.644531 -1.289062 18.390625 -1.378906 17.046875 -1.515625 C 15.085938 -1.710938 13.269531 -2.597656 11.59375 -4.171875 C 9.914062 -5.753906 8.4375 -7.820312 7.15625 -10.375 C 5.882812 -12.9375 4.894531 -15.863281 4.1875 -19.15625 C 3.476562 -22.445312 3.125 -25.941406 3.125 -29.640625 C 3.125 -34.210938 3.796875 -37.828125 5.140625 -40.484375 C 6.484375 -43.140625 8.144531 -45.15625 10.125 -46.53125 C 12.113281 -47.90625 14.234375 -48.773438 16.484375 -49.140625 C 18.734375 -49.515625 20.800781 -49.703125 22.6875 -49.703125 C 25.039062 -49.703125 27.191406 -49.582031 29.140625 -49.34375 C 31.085938 -49.113281 32.566406 -48.734375 33.578125 -48.203125 C 38.617188 -45.640625 41.140625 -40.359375 41.140625 -32.359375 C 41.140625 -31.421875 41.085938 -30.460938 40.984375 -29.484375 C 40.878906 -28.515625 40.660156 -27.5625 40.328125 -26.625 C 40.128906 -26.550781 39.625 -26.515625 38.8125 -26.515625 C 35.519531 -26.710938 32.816406 -26.84375 30.703125 -26.90625 C 28.585938 -26.976562 27.054688 -27.082031 26.109375 -27.21875 C 25.171875 -27.351562 24.265625 -27.535156 23.390625 -27.765625 C 22.515625 -28.003906 21.609375 -28.125 20.671875 -28.125 C 20.128906 -28.125 19.640625 -28.070312 19.203125 -27.96875 C 18.765625 -27.875 18.347656 -27.828125 17.953125 -27.828125 C 17.546875 -27.828125 17.175781 -27.992188 16.84375 -28.328125 Z M 30.25 -32.5625 C 30.382812 -32.425781 30.46875 -32.304688 30.5 -32.203125 C 30.53125 -32.109375 30.648438 -32.0625 30.859375 -32.0625 C 30.992188 -32.0625 31.226562 -32.429688 31.5625 -33.171875 C 31.894531 -33.910156 32.0625 -34.445312 32.0625 -34.78125 C 32.0625 -36.125 31.675781 -37.316406 30.90625 -38.359375 C 30.132812 -39.398438 29.378906 -40.359375 28.640625 -41.234375 C 28.566406 -41.171875 28.394531 -41.140625 28.125 -41.140625 C 27.59375 -41.140625 27.085938 -41.320312 26.609375 -41.6875 C 26.140625 -42.0625 25.601562 -42.25 25 -42.25 C 24.738281 -42.25 24.488281 -42.226562 24.25 -42.1875 C 24.007812 -42.15625 23.757812 -42.140625 23.5 -42.140625 C 22.820312 -42.140625 22.28125 -42.289062 21.875 -42.59375 C 21.476562 -42.894531 20.941406 -43.046875 20.265625 -43.046875 C 19.523438 -43.046875 18.921875 -42.859375 18.453125 -42.484375 C 17.984375 -42.117188 17.546875 -41.671875 17.140625 -41.140625 L 16.03125 -39.53125 C 15.695312 -38.988281 15.328125 -38.515625 14.921875 -38.109375 C 14.984375 -38.046875 15.015625 -37.710938 15.015625 -37.109375 C 15.015625 -36.640625 14.960938 -36.164062 14.859375 -35.6875 C 14.765625 -35.21875 14.71875 -34.75 14.71875 -34.28125 C 14.71875 -33.738281 14.867188 -33.347656 15.171875 -33.109375 C 15.472656 -32.878906 15.726562 -32.628906 15.9375 -32.359375 C 16.0625 -33.097656 16.5625 -33.46875 17.4375 -33.46875 C 18.582031 -33.46875 20.078125 -33.25 21.921875 -32.8125 C 23.773438 -32.382812 25.507812 -32.171875 27.125 -32.171875 C 28.738281 -32.171875 29.78125 -32.300781 30.25 -32.5625 Z M 17.34375 -34.6875 C 17.34375 -35.21875 17.238281 -35.703125 17.03125 -36.140625 C 16.832031 -36.578125 16.734375 -37 16.734375 -37.40625 C 16.734375 -37.945312 16.984375 -38.4375 17.484375 -38.875 C 17.992188 -39.3125 18.632812 -39.679688 19.40625 -39.984375 C 20.175781 -40.285156 21.03125 -40.519531 21.96875 -40.6875 C 22.914062 -40.851562 23.859375 -40.9375 24.796875 -40.9375 C 26.878906 -40.9375 28.257812 -40.394531 28.9375 -39.3125 C 29.613281 -38.238281 29.953125 -36.832031 29.953125 -35.09375 C 29.609375 -35.09375 29.25 -35.109375 28.875 -35.140625 C 28.507812 -35.171875 28.191406 -35.1875 27.921875 -35.1875 C 27.453125 -35.1875 27.21875 -35.050781 27.21875 -34.78125 C 27.15625 -34.851562 26.6875 -34.988281 25.8125 -35.1875 L 25.8125 -34.984375 C 25.8125 -34.921875 25.84375 -34.890625 25.90625 -34.890625 C 25.90625 -34.816406 25.875 -34.75 25.8125 -34.6875 C 25.269531 -34.75 24.441406 -34.78125 23.328125 -34.78125 C 22.222656 -34.78125 20.96875 -34.78125 19.5625 -34.78125 C 18.21875 -34.78125 17.476562 -34.75 17.34375 -34.6875 Z M 17.34375 -34.6875" transform="translate(103.71 82.455)"/></g></g></g><g fill="#1C2120"><g><g><path d="M 45.578125 -22.390625 C 44.898438 -24.398438 44.054688 -26.109375 43.046875 -27.515625 C 42.046875 -28.929688 41.085938 -30.09375 40.171875 -31 C 39.265625 -31.90625 38.472656 -32.5625 37.796875 -32.96875 C 37.128906 -33.375 36.796875 -33.578125 36.796875 -33.578125 L 36.5 -33.875 C 36.03125 -34.34375 35.796875 -34.816406 35.796875 -35.296875 C 35.796875 -35.492188 35.894531 -35.691406 36.09375 -35.890625 C 38.582031 -37.640625 40.648438 -39.757812 42.296875 -42.25 C 43.941406 -44.738281 44.765625 -47.695312 44.765625 -51.125 C 44.765625 -53.875 44.226562 -56.628906 43.15625 -59.390625 C 42.21875 -61.203125 41.257812 -62.847656 40.28125 -64.328125 C 39.300781 -65.804688 38.140625 -67.097656 36.796875 -68.203125 C 35.453125 -69.316406 33.804688 -70.175781 31.859375 -70.78125 C 29.910156 -71.382812 27.492188 -71.6875 24.609375 -71.6875 C 21.984375 -71.6875 19.328125 -71.519531 16.640625 -71.1875 C 13.953125 -70.851562 11.296875 -70.6875 8.671875 -70.6875 C 8.335938 -70.6875 8.019531 -70.703125 7.71875 -70.734375 C 7.414062 -70.765625 7.09375 -70.78125 6.75 -70.78125 C 6.351562 -70.644531 5.9375 -70.5625 5.5 -70.53125 C 5.0625 -70.5 4.707031 -70.242188 4.4375 -69.765625 L 4.328125 -65.34375 C 4.535156 -59.5625 4.640625 -53.78125 4.640625 -48 C 4.640625 -41.875 4.585938 -35.753906 4.484375 -29.640625 C 4.378906 -23.523438 4.328125 -17.410156 4.328125 -11.296875 L 4.328125 -5.25 C 4.328125 -4.238281 4.328125 -3.226562 4.328125 -2.21875 C 4.328125 -1.207031 4.363281 -0.234375 4.4375 0.703125 C 5.175781 1.035156 6 1.269531 6.90625 1.40625 C 7.8125 1.539062 8.734375 1.609375 9.671875 1.609375 C 11.148438 1.609375 12.644531 1.523438 14.15625 1.359375 C 15.675781 1.191406 17.109375 1.109375 18.453125 1.109375 C 19.660156 1.242188 20.9375 1.359375 22.28125 1.453125 C 23.625 1.554688 24.96875 1.609375 26.3125 1.609375 C 27.863281 1.609375 29.378906 1.488281 30.859375 1.25 C 32.335938 1.019531 33.75 0.601562 35.09375 0 L 35.390625 0.40625 C 36.535156 -0.195312 37.5625 -0.734375 38.46875 -1.203125 C 39.375 -1.679688 40.097656 -2.085938 40.640625 -2.421875 C 41.171875 -2.753906 41.804688 -3.425781 42.546875 -4.4375 C 43.285156 -5.445312 43.972656 -6.503906 44.609375 -7.609375 C 45.253906 -8.722656 45.8125 -9.679688 46.28125 -10.484375 C 46.75 -11.296875 46.984375 -11.664062 46.984375 -11.59375 L 47.1875 -11.796875 L 47.1875 -12.296875 C 47.25 -13.035156 47.296875 -13.722656 47.328125 -14.359375 C 47.367188 -15.003906 47.390625 -15.59375 47.390625 -16.125 C 47.390625 -17.476562 47.171875 -18.691406 46.734375 -19.765625 C 46.296875 -20.835938 45.941406 -21.644531 45.671875 -22.1875 L 45.671875 -22.28125 Z M 35.484375 -33.578125 C 35.421875 -33.578125 35.390625 -33.539062 35.390625 -33.46875 C 35.390625 -33.40625 35.757812 -33.171875 36.5 -32.765625 C 38.582031 -31.554688 40.210938 -30.160156 41.390625 -28.578125 C 42.566406 -27.003906 43.441406 -25.425781 44.015625 -23.84375 C 44.585938 -22.257812 44.9375 -20.828125 45.0625 -19.546875 C 45.195312 -18.273438 45.265625 -17.335938 45.265625 -16.734375 C 45.265625 -15.117188 45.113281 -13.773438 44.8125 -12.703125 C 44.507812 -11.628906 44.039062 -10.617188 43.40625 -9.671875 C 42.769531 -8.734375 41.910156 -7.742188 40.828125 -6.703125 C 39.753906 -5.660156 38.445312 -4.367188 36.90625 -2.828125 C 36.769531 -2.285156 36.195312 -1.847656 35.1875 -1.515625 C 34.175781 -1.179688 32.984375 -0.925781 31.609375 -0.75 C 30.234375 -0.582031 28.785156 -0.460938 27.265625 -0.390625 C 25.753906 -0.328125 24.460938 -0.296875 23.390625 -0.296875 C 21.910156 -0.296875 20.445312 -0.3125 19 -0.34375 C 17.5625 -0.382812 16.101562 -0.40625 14.625 -0.40625 C 12.132812 -0.40625 9.75 -0.300781 7.46875 -0.09375 L 8.671875 -0.40625 L 6.15625 -0.5 C 6.21875 -0.632812 6.25 -1.003906 6.25 -1.609375 L 6.25 -3.125 C 6.25 -4.0625 6.234375 -5.050781 6.203125 -6.09375 C 6.171875 -7.132812 6.15625 -8.128906 6.15625 -9.078125 C 6.15625 -9.679688 6.1875 -10.25 6.25 -10.78125 C 6.320312 -11.320312 6.359375 -11.828125 6.359375 -12.296875 C 6.359375 -12.503906 6.335938 -12.707031 6.296875 -12.90625 C 6.265625 -13.101562 6.25 -13.269531 6.25 -13.40625 C 6.25 -13.75 6.316406 -13.984375 6.453125 -14.109375 C 6.585938 -13.710938 6.65625 -13.546875 6.65625 -13.609375 L 6.75 -13.609375 C 6.75 -15.554688 6.734375 -17.519531 6.703125 -19.5 C 6.671875 -21.488281 6.65625 -23.492188 6.65625 -25.515625 C 6.65625 -27.859375 6.6875 -30.171875 6.75 -32.453125 C 6.820312 -34.742188 6.992188 -37 7.265625 -39.21875 C 7.128906 -40.96875 7.039062 -42.546875 7 -43.953125 C 6.96875 -45.367188 6.953125 -46.863281 6.953125 -48.4375 C 6.953125 -50.019531 6.9375 -51.816406 6.90625 -53.828125 C 6.875 -55.847656 6.820312 -58.335938 6.75 -61.296875 L 6.75 -68.0625 C 6.820312 -68.125 6.859375 -68.359375 6.859375 -68.765625 L 6.859375 -69.171875 C 6.859375 -69.171875 6.988281 -69.203125 7.25 -69.265625 C 7.519531 -69.335938 8.078125 -69.40625 8.921875 -69.46875 C 9.765625 -69.539062 10.972656 -69.59375 12.546875 -69.625 C 14.128906 -69.65625 16.234375 -69.671875 18.859375 -69.671875 C 21.003906 -69.671875 23.390625 -69.5 26.015625 -69.15625 C 28.640625 -68.820312 30.820312 -68.253906 32.5625 -67.453125 C 33.375 -67.179688 34.316406 -66.609375 35.390625 -65.734375 C 36.460938 -64.859375 37.46875 -63.710938 38.40625 -62.296875 C 39.351562 -60.890625 40.144531 -59.242188 40.78125 -57.359375 C 41.425781 -55.484375 41.75 -53.40625 41.75 -51.125 L 41.75 -49.5 C 41.8125 -49.375 41.84375 -49.039062 41.84375 -48.5 L 41.84375 -47.6875 C 41.84375 -45.9375 41.519531 -44.539062 40.875 -43.5 C 40.238281 -42.457031 39.5 -41.535156 38.65625 -40.734375 C 37.820312 -39.929688 36.929688 -39.175781 35.984375 -38.46875 C 35.046875 -37.757812 34.273438 -36.898438 33.671875 -35.890625 C 33.671875 -35.085938 34.078125 -34.453125 34.890625 -33.984375 Z M 26.109375 -28.328125 C 24.566406 -28.734375 23.019531 -28.96875 21.46875 -29.03125 C 19.925781 -29.101562 18.382812 -29.207031 16.84375 -29.34375 L 16.234375 -13.109375 L 17.640625 -12.203125 C 18.984375 -12.265625 20.476562 -12.28125 22.125 -12.25 C 23.78125 -12.21875 25.328125 -12.382812 26.765625 -12.75 C 28.210938 -13.125 29.421875 -13.847656 30.390625 -14.921875 C 31.367188 -15.992188 31.859375 -17.640625 31.859375 -19.859375 C 31.859375 -22.015625 31.320312 -23.894531 30.25 -25.5 C 29.175781 -27.113281 27.796875 -28.054688 26.109375 -28.328125 Z M 17.4375 -56.15625 C 16.90625 -55.625 16.640625 -54.921875 16.640625 -54.046875 C 16.640625 -53.710938 16.65625 -53.359375 16.6875 -52.984375 C 16.71875 -52.617188 16.734375 -52.265625 16.734375 -51.921875 L 17.046875 -53.140625 C 17.171875 -52.597656 17.234375 -52.226562 17.234375 -52.03125 L 17.234375 -51.015625 C 17.234375 -49.878906 17.148438 -48.785156 16.984375 -47.734375 C 16.816406 -46.691406 16.734375 -45.601562 16.734375 -44.46875 C 16.734375 -42.914062 17.066406 -42.003906 17.734375 -41.734375 C 18.410156 -41.472656 19.320312 -41.34375 20.46875 -41.34375 C 21.613281 -41.34375 22.859375 -41.441406 24.203125 -41.640625 C 25.546875 -41.835938 26.804688 -42.238281 27.984375 -42.84375 C 29.160156 -43.457031 30.132812 -44.332031 30.90625 -45.46875 C 31.675781 -46.613281 32.0625 -48.128906 32.0625 -50.015625 C 32.0625 -51.285156 31.707031 -52.34375 31 -53.1875 C 30.300781 -54.03125 29.425781 -54.703125 28.375 -55.203125 C 27.332031 -55.703125 26.207031 -56.035156 25 -56.203125 C 23.789062 -56.378906 22.71875 -56.46875 21.78125 -56.46875 C 21.039062 -56.46875 20.300781 -56.429688 19.5625 -56.359375 C 18.820312 -56.296875 18.113281 -56.226562 17.4375 -56.15625 Z M 28.640625 -44.765625 C 27.691406 -43.617188 26.578125 -42.910156 25.296875 -42.640625 C 24.023438 -42.378906 22.6875 -42.25 21.28125 -42.25 C 20.738281 -42.25 20.179688 -42.265625 19.609375 -42.296875 C 19.035156 -42.328125 18.484375 -42.34375 17.953125 -42.34375 C 17.742188 -43.757812 17.640625 -45.34375 17.640625 -47.09375 C 17.640625 -48.4375 17.671875 -49.78125 17.734375 -51.125 C 17.804688 -52.46875 17.84375 -53.742188 17.84375 -54.953125 C 18.175781 -55.015625 18.460938 -55.0625 18.703125 -55.09375 C 18.941406 -55.132812 19.128906 -55.15625 19.265625 -55.15625 C 20.003906 -55.15625 20.789062 -55.050781 21.625 -54.84375 C 22.46875 -54.644531 23.328125 -54.546875 24.203125 -54.546875 C 24.734375 -54.546875 25.332031 -54.460938 26 -54.296875 C 26.675781 -54.128906 27.300781 -53.859375 27.875 -53.484375 C 28.445312 -53.117188 28.9375 -52.664062 29.34375 -52.125 C 29.75 -51.59375 29.953125 -50.957031 29.953125 -50.21875 C 29.953125 -49.070312 29.644531 -47.957031 29.03125 -46.875 C 28.425781 -45.800781 27.625 -44.894531 26.625 -44.15625 Z M 27.625 -16.03125 C 27.019531 -14.882812 26.128906 -14.144531 24.953125 -13.8125 C 23.773438 -13.476562 22.75 -13.3125 21.875 -13.3125 C 21.070312 -13.3125 20.46875 -13.359375 20.0625 -13.453125 C 19.65625 -13.554688 19.253906 -13.609375 18.859375 -13.609375 L 18.15625 -13.609375 C 17.882812 -13.609375 17.710938 -13.644531 17.640625 -13.71875 C 17.910156 -14.320312 18.046875 -15.394531 18.046875 -16.9375 C 18.046875 -17.34375 18.03125 -17.847656 18 -18.453125 C 17.96875 -19.054688 17.953125 -19.796875 17.953125 -20.671875 L 17.953125 -26.421875 C 18.890625 -26.347656 19.992188 -26.328125 21.265625 -26.359375 C 22.546875 -26.398438 23.773438 -26.285156 24.953125 -26.015625 C 26.128906 -25.742188 27.117188 -25.203125 27.921875 -24.390625 C 28.734375 -23.585938 29.140625 -22.3125 29.140625 -20.5625 C 29.140625 -19.757812 29.019531 -18.972656 28.78125 -18.203125 C 28.550781 -17.429688 28.164062 -16.707031 27.625 -16.03125 Z M 27.625 -16.03125" transform="translate(163.905 82.455)"/></g></g></g><g fill="#1C2120"><g><g><path d="M 42.546875 -50.109375 C 42.015625 -50.515625 41.378906 -50.71875 40.640625 -50.71875 C 40.160156 -50.71875 39.648438 -50.664062 39.109375 -50.5625 C 38.578125 -50.46875 37.941406 -50.421875 37.203125 -50.421875 C 36.867188 -50.421875 36.550781 -50.4375 36.25 -50.46875 C 35.945312 -50.5 35.628906 -50.515625 35.296875 -50.515625 C 34.484375 -50.515625 33.722656 -50.394531 33.015625 -50.15625 C 32.316406 -49.925781 31.664062 -49.8125 31.0625 -49.8125 C 30.519531 -49.8125 30.148438 -49.910156 29.953125 -50.109375 C 29.953125 -49.703125 29.75 -49.515625 29.34375 -49.546875 C 28.9375 -49.585938 28.664062 -49.441406 28.53125 -49.109375 C 28.601562 -48.628906 28.65625 -48.117188 28.6875 -47.578125 C 28.71875 -47.046875 28.734375 -46.515625 28.734375 -45.984375 L 28.734375 -42.25 C 28.734375 -40.90625 28.71875 -39.507812 28.6875 -38.0625 C 28.65625 -36.613281 28.640625 -34.515625 28.640625 -31.765625 C 28.640625 -29.816406 28.617188 -27.929688 28.578125 -26.109375 C 28.546875 -24.296875 28.328125 -22.648438 27.921875 -21.171875 C 27.523438 -19.691406 26.804688 -18.515625 25.765625 -17.640625 C 24.722656 -16.765625 23.191406 -16.328125 21.171875 -16.328125 C 20.234375 -16.328125 19.460938 -16.613281 18.859375 -17.1875 C 18.253906 -17.757812 17.78125 -18.484375 17.4375 -19.359375 C 17.101562 -20.234375 16.867188 -21.207031 16.734375 -22.28125 C 16.597656 -23.351562 16.53125 -24.394531 16.53125 -25.40625 L 16.53125 -29.140625 C 16.53125 -31.691406 16.5625 -34.144531 16.625 -36.5 C 16.695312 -38.851562 16.734375 -41.003906 16.734375 -42.953125 C 16.734375 -44.703125 16.695312 -46.296875 16.625 -47.734375 C 16.5625 -49.179688 16.429688 -50.410156 16.234375 -51.421875 C 15.492188 -51.617188 14.6875 -51.71875 13.8125 -51.71875 C 12.875 -51.71875 11.847656 -51.632812 10.734375 -51.46875 C 9.628906 -51.300781 8.601562 -51.21875 7.65625 -51.21875 C 6.988281 -51.21875 6.148438 -51.382812 5.140625 -51.71875 C 5.078125 -51.457031 4.804688 -51.328125 4.328125 -51.328125 L 2.921875 -51.328125 C 2.785156 -51.390625 2.679688 -51.503906 2.609375 -51.671875 C 2.546875 -51.835938 2.445312 -51.921875 2.3125 -51.921875 C 2.25 -51.921875 2.148438 -51.851562 2.015625 -51.71875 L 2.015625 -51.421875 C 2.015625 -50.617188 2.03125 -49.796875 2.0625 -48.953125 C 2.101562 -48.109375 2.125 -47.25 2.125 -46.375 C 2.125 -42.882812 2.054688 -39.289062 1.921875 -35.59375 C 1.785156 -31.894531 1.71875 -28.429688 1.71875 -25.203125 C 1.71875 -24.597656 1.785156 -24.007812 1.921875 -23.4375 C 2.054688 -22.863281 2.15625 -22.273438 2.21875 -21.671875 C 2.21875 -20.867188 2.179688 -20.082031 2.109375 -19.3125 C 2.046875 -18.539062 2.015625 -17.785156 2.015625 -17.046875 C 2.015625 -14.691406 2.265625 -12.488281 2.765625 -10.4375 C 3.273438 -8.382812 4.015625 -6.582031 4.984375 -5.03125 C 5.960938 -3.488281 7.171875 -2.28125 8.609375 -1.40625 C 10.054688 -0.53125 11.722656 -0.09375 13.609375 -0.09375 C 14.890625 -0.09375 16.148438 -0.257812 17.390625 -0.59375 C 18.640625 -0.9375 19.816406 -1.359375 20.921875 -1.859375 C 22.023438 -2.367188 23.066406 -2.90625 24.046875 -3.46875 C 25.023438 -4.039062 25.914062 -4.566406 26.71875 -5.046875 C 26.582031 -4.503906 26.476562 -3.910156 26.40625 -3.265625 C 26.34375 -2.628906 26.3125 -2.007812 26.3125 -1.40625 C 26.3125 -0.738281 26.34375 -0.285156 26.40625 -0.046875 C 26.476562 0.179688 26.882812 0.296875 27.625 0.296875 C 28.96875 0.296875 30.460938 0.144531 32.109375 -0.15625 C 33.753906 -0.457031 35.351562 -0.609375 36.90625 -0.609375 C 37.707031 -0.609375 38.78125 -0.4375 40.125 -0.09375 C 40.257812 -0.363281 40.394531 -0.921875 40.53125 -1.765625 C 40.664062 -2.609375 40.867188 -3.734375 41.140625 -5.140625 L 41.140625 -6.953125 C 41.140625 -10.984375 41.40625 -15.179688 41.9375 -19.546875 C 42.476562 -23.921875 42.75 -28.257812 42.75 -32.5625 C 42.75 -34.914062 42.679688 -37.234375 42.546875 -39.515625 C 42.410156 -41.804688 42.34375 -44.023438 42.34375 -46.171875 C 42.34375 -46.910156 42.359375 -47.597656 42.390625 -48.234375 C 42.429688 -48.878906 42.484375 -49.503906 42.546875 -50.109375 Z M 40.234375 -31.765625 C 40.097656 -27.597656 40.03125 -23.734375 40.03125 -20.171875 C 40.03125 -16.609375 39.945312 -13.53125 39.78125 -10.9375 C 39.613281 -8.351562 39.289062 -6.320312 38.8125 -4.84375 C 38.34375 -3.363281 37.601562 -2.625 36.59375 -2.625 C 35.65625 -2.625 34.695312 -2.738281 33.71875 -2.96875 C 32.75 -3.207031 31.796875 -3.328125 30.859375 -3.328125 C 30.117188 -3.328125 29.445312 -3.226562 28.84375 -3.03125 C 28.84375 -3.632812 28.820312 -4.21875 28.78125 -4.78125 C 28.75 -5.351562 28.734375 -5.910156 28.734375 -6.453125 C 28.734375 -7.597656 28.96875 -8.40625 29.4375 -8.875 C 29.101562 -9.144531 28.882812 -9.3125 28.78125 -9.375 C 28.6875 -9.445312 28.601562 -9.816406 28.53125 -10.484375 C 27.925781 -10.285156 27.421875 -9.984375 27.015625 -9.578125 C 26.617188 -9.171875 26.25 -8.703125 25.90625 -8.171875 C 24.5625 -6.222656 23.082031 -4.691406 21.46875 -3.578125 C 19.863281 -2.472656 17.78125 -1.921875 15.21875 -1.921875 C 13.8125 -1.921875 12.453125 -2.253906 11.140625 -2.921875 C 9.828125 -3.597656 8.664062 -4.523438 7.65625 -5.703125 C 6.65625 -6.878906 5.847656 -8.269531 5.234375 -9.875 C 4.628906 -11.488281 4.328125 -13.238281 4.328125 -15.125 C 4.328125 -16.269531 4.296875 -17.863281 4.234375 -19.90625 C 4.171875 -21.957031 4.140625 -24.394531 4.140625 -27.21875 C 4.140625 -29.300781 4.203125 -31.148438 4.328125 -32.765625 C 4.460938 -34.378906 4.628906 -35.910156 4.828125 -37.359375 C 5.035156 -38.804688 5.207031 -40.21875 5.34375 -41.59375 C 5.476562 -42.96875 5.546875 -44.429688 5.546875 -45.984375 L 5.546875 -47.6875 C 5.546875 -48.5 5.507812 -49.070312 5.4375 -49.40625 C 6.71875 -49.40625 7.828125 -49.453125 8.765625 -49.546875 C 9.710938 -49.648438 10.65625 -49.703125 11.59375 -49.703125 C 12.132812 -49.703125 12.640625 -49.6875 13.109375 -49.65625 C 13.578125 -49.625 14.082031 -49.539062 14.625 -49.40625 C 14.488281 -47.65625 14.382812 -45.804688 14.3125 -43.859375 C 14.25 -41.910156 14.21875 -39.59375 14.21875 -36.90625 C 14.21875 -34.957031 14.234375 -32.738281 14.265625 -30.25 C 14.296875 -27.757812 14.53125 -25.421875 14.96875 -23.234375 C 15.40625 -21.054688 16.109375 -19.207031 17.078125 -17.6875 C 18.054688 -16.175781 19.519531 -15.421875 21.46875 -15.421875 C 23.6875 -15.421875 25.46875 -16.128906 26.8125 -17.546875 C 27.019531 -18.210938 27.304688 -18.878906 27.671875 -19.546875 C 28.046875 -20.222656 28.429688 -20.914062 28.828125 -21.625 C 29.234375 -22.332031 29.570312 -23.054688 29.84375 -23.796875 C 30.113281 -24.535156 30.25 -25.375 30.25 -26.3125 C 30.25 -28.257812 30.144531 -30.289062 29.9375 -32.40625 C 29.738281 -34.53125 29.640625 -36.566406 29.640625 -38.515625 C 29.640625 -40.265625 29.691406 -41.992188 29.796875 -43.703125 C 29.898438 -45.421875 30.082031 -47.117188 30.34375 -48.796875 C 31.15625 -49.003906 31.976562 -49.140625 32.8125 -49.203125 C 33.65625 -49.273438 34.546875 -49.3125 35.484375 -49.3125 C 36.222656 -49.3125 36.976562 -49.289062 37.75 -49.25 C 38.53125 -49.21875 39.320312 -49.171875 40.125 -49.109375 L 40.125 -42.859375 C 40.125 -42.046875 40.140625 -41.050781 40.171875 -39.875 C 40.210938 -38.695312 40.234375 -37.335938 40.234375 -35.796875 Z M 40.234375 -31.765625" transform="translate(227.427 82.455)"/></g></g></g><g fill="#1C2120"><g><g><path d="M 44.46875 -15.625 C 44.332031 -18.175781 44.046875 -20.78125 43.609375 -23.4375 C 43.171875 -26.09375 42.953125 -28.832031 42.953125 -31.65625 C 42.953125 -33.875 43 -36.039062 43.09375 -38.15625 C 43.195312 -40.28125 43.25 -42.414062 43.25 -44.5625 L 43.25 -49.203125 C 43.25 -49.804688 43.113281 -50.328125 42.84375 -50.765625 C 42.582031 -51.203125 41.945312 -51.421875 40.9375 -51.421875 C 40.394531 -51.421875 39.671875 -51.382812 38.765625 -51.3125 C 37.859375 -51.25 36.867188 -51.21875 35.796875 -51.21875 C 34.648438 -51.21875 33.503906 -51.285156 32.359375 -51.421875 C 31.222656 -51.554688 30.21875 -51.828125 29.34375 -52.234375 L 29.234375 -52.328125 L 28.84375 -52.125 L 28.84375 -50.015625 C 28.84375 -49.066406 28.804688 -48.492188 28.734375 -48.296875 C 27.585938 -49.234375 26.242188 -49.90625 24.703125 -50.3125 C 23.160156 -50.71875 21.582031 -50.921875 19.96875 -50.921875 C 18.019531 -50.921875 16.101562 -50.617188 14.21875 -50.015625 C 12.332031 -49.410156 10.785156 -48.632812 9.578125 -47.6875 C 8.640625 -46.945312 7.914062 -46.070312 7.40625 -45.0625 C 6.90625 -44.0625 6.382812 -43.222656 5.84375 -42.546875 C 3.488281 -39.796875 1.941406 -36.957031 1.203125 -34.03125 C 0.460938 -31.101562 0.09375 -27.722656 0.09375 -23.890625 C 0.09375 -22.273438 0.144531 -20.59375 0.25 -18.84375 C 0.351562 -17.101562 0.535156 -15.375 0.796875 -13.65625 C 1.066406 -11.945312 1.4375 -10.300781 1.90625 -8.71875 C 2.382812 -7.144531 2.992188 -5.75 3.734375 -4.53125 C 4.335938 -3.394531 5.296875 -2.390625 6.609375 -1.515625 C 7.921875 -0.640625 9.378906 0.0820312 10.984375 0.65625 C 12.597656 1.226562 14.226562 1.664062 15.875 1.96875 C 17.519531 2.269531 19.019531 2.421875 20.375 2.421875 C 21.914062 2.421875 23.40625 2 24.84375 1.15625 C 26.289062 0.320312 27.625 -0.296875 28.84375 -0.703125 C 28.90625 -0.566406 28.9375 -0.234375 28.9375 0.296875 L 28.9375 1.40625 C 28.9375 3.757812 28.378906 5.625 27.265625 7 C 26.160156 8.382812 24.632812 9.078125 22.6875 9.078125 C 21.207031 9.078125 19.878906 8.585938 18.703125 7.609375 C 17.523438 6.640625 16.9375 5.28125 16.9375 3.53125 C 16.601562 3.53125 15.710938 3.5625 14.265625 3.625 C 12.816406 3.695312 11.269531 3.78125 9.625 3.875 C 7.976562 3.976562 6.414062 4.078125 4.9375 4.171875 C 3.457031 4.273438 2.550781 4.363281 2.21875 4.4375 C 2.351562 6.519531 2.875 8.398438 3.78125 10.078125 C 4.6875 11.765625 5.609375 13.242188 6.546875 14.515625 C 7.285156 15.460938 7.941406 16.050781 8.515625 16.28125 C 9.085938 16.519531 9.84375 16.90625 10.78125 17.4375 C 11.257812 17.707031 11.664062 18.007812 12 18.34375 C 12.332031 18.6875 12.734375 18.992188 13.203125 19.265625 C 15.023438 20.265625 17.242188 20.945312 19.859375 21.3125 C 22.484375 21.6875 24.9375 21.875 27.21875 21.875 C 29.238281 21.875 31.1875 21.601562 33.0625 21.0625 C 34.945312 20.53125 36.628906 19.675781 38.109375 18.5 C 39.585938 17.320312 40.796875 15.804688 41.734375 13.953125 C 42.679688 12.109375 43.253906 9.84375 43.453125 7.15625 C 43.796875 2.925781 44.050781 -0.96875 44.21875 -4.53125 C 44.382812 -8.09375 44.46875 -11.789062 44.46875 -15.625 Z M 40.9375 10.078125 C 40.332031 12.097656 39.691406 13.78125 39.015625 15.125 C 38.347656 16.46875 37.539062 17.554688 36.59375 18.390625 C 35.65625 19.234375 34.5 19.820312 33.125 20.15625 C 31.75 20.5 30.015625 20.671875 27.921875 20.671875 C 26.109375 20.671875 24.597656 20.453125 23.390625 20.015625 C 22.179688 19.578125 20.804688 18.988281 19.265625 18.25 C 17.984375 17.644531 16.566406 17.140625 15.015625 16.734375 C 13.472656 16.328125 11.992188 15.738281 10.578125 14.96875 C 9.171875 14.195312 7.960938 13.085938 6.953125 11.640625 C 5.941406 10.203125 5.335938 8.132812 5.140625 5.4375 C 6.078125 5.3125 7.015625 5.210938 7.953125 5.140625 C 8.898438 5.078125 9.84375 5.046875 10.78125 5.046875 C 11.726562 5.046875 12.640625 5.09375 13.515625 5.1875 C 14.390625 5.289062 15.160156 5.476562 15.828125 5.75 C 16.234375 7.363281 17.15625 8.738281 18.59375 9.875 C 20.039062 11.019531 21.609375 11.59375 23.296875 11.59375 C 24.296875 11.59375 25.21875 11.304688 26.0625 10.734375 C 26.90625 10.160156 27.660156 9.40625 28.328125 8.46875 C 29.003906 7.53125 29.523438 6.453125 29.890625 5.234375 C 30.265625 4.023438 30.453125 2.75 30.453125 1.40625 C 30.453125 0.132812 30.210938 -0.851562 29.734375 -1.5625 C 29.265625 -2.269531 28.929688 -3.128906 28.734375 -4.140625 C 26.847656 -3.328125 25.148438 -2.535156 23.640625 -1.765625 C 22.128906 -0.992188 20.300781 -0.609375 18.15625 -0.609375 C 16.800781 -0.609375 15.25 -0.941406 13.5 -1.609375 C 11.757812 -2.285156 10.082031 -3.242188 8.46875 -4.484375 C 6.851562 -5.734375 5.488281 -7.265625 4.375 -9.078125 C 3.269531 -10.890625 2.71875 -12.9375 2.71875 -15.21875 C 2.71875 -16.5625 2.851562 -17.875 3.125 -19.15625 C 3.394531 -20.4375 3.53125 -21.75 3.53125 -23.09375 L 3.53125 -25.71875 C 3.53125 -28.601562 3.878906 -31.375 4.578125 -34.03125 C 5.285156 -36.6875 6.226562 -39.035156 7.40625 -41.078125 C 8.582031 -43.128906 9.925781 -44.757812 11.4375 -45.96875 C 12.957031 -47.1875 14.519531 -47.796875 16.125 -47.796875 C 17.070312 -47.796875 18.046875 -47.925781 19.046875 -48.1875 C 20.054688 -48.457031 20.863281 -48.59375 21.46875 -48.59375 C 22.144531 -48.59375 22.898438 -48.539062 23.734375 -48.4375 C 24.578125 -48.34375 25.398438 -48.160156 26.203125 -47.890625 C 27.015625 -47.617188 27.722656 -47.265625 28.328125 -46.828125 C 28.929688 -46.390625 29.335938 -45.835938 29.546875 -45.171875 C 29.816406 -45.304688 29.914062 -45.523438 29.84375 -45.828125 C 29.78125 -46.128906 29.984375 -46.28125 30.453125 -46.28125 C 30.453125 -46.75 30.347656 -47.269531 30.140625 -47.84375 C 29.941406 -48.414062 29.84375 -48.96875 29.84375 -49.5 C 29.84375 -49.90625 29.925781 -50.160156 30.09375 -50.265625 C 30.257812 -50.367188 30.515625 -50.421875 30.859375 -50.421875 C 31.859375 -50.421875 32.960938 -50.351562 34.171875 -50.21875 C 35.390625 -50.082031 36.671875 -50.015625 38.015625 -50.015625 C 38.421875 -50.015625 38.835938 -50.03125 39.265625 -50.0625 C 39.703125 -50.09375 40.125 -50.144531 40.53125 -50.21875 C 40.53125 -49.945312 40.546875 -49.707031 40.578125 -49.5 C 40.617188 -49.300781 40.640625 -49.101562 40.640625 -48.90625 C 40.640625 -47.957031 40.570312 -47.046875 40.4375 -46.171875 C 40.300781 -45.304688 40.234375 -44.398438 40.234375 -43.453125 C 40.234375 -41.171875 40.535156 -38.867188 41.140625 -36.546875 C 41.742188 -34.234375 42.046875 -32 42.046875 -29.84375 L 42.046875 -27.125 C 42.046875 -25.445312 42.023438 -23.75 41.984375 -22.03125 C 41.953125 -20.3125 41.9375 -18.613281 41.9375 -16.9375 C 41.9375 -15.65625 41.96875 -14.492188 42.03125 -13.453125 C 42.101562 -12.410156 42.191406 -11.351562 42.296875 -10.28125 C 42.398438 -9.207031 42.5 -8.082031 42.59375 -6.90625 C 42.695312 -5.726562 42.75 -4.367188 42.75 -2.828125 C 42.75 -0.671875 42.613281 1.53125 42.34375 3.78125 C 42.070312 6.03125 41.601562 8.128906 40.9375 10.078125 Z M 30.25 -30.546875 C 29.976562 -31.890625 29.722656 -33.179688 29.484375 -34.421875 C 29.253906 -35.671875 28.835938 -36.597656 28.234375 -37.203125 C 27.023438 -37.742188 25.78125 -38.265625 24.5 -38.765625 C 23.21875 -39.273438 21.707031 -39.59375 19.96875 -39.71875 C 19.625 -39.59375 19.367188 -39.378906 19.203125 -39.078125 C 19.035156 -38.773438 18.851562 -38.625 18.65625 -38.625 C 18.445312 -38.625 18.289062 -38.640625 18.1875 -38.671875 C 18.09375 -38.703125 17.976562 -38.71875 17.84375 -38.71875 C 15.832031 -37.507812 14.269531 -35.894531 13.15625 -33.875 C 12.050781 -31.863281 11.5 -29.507812 11.5 -26.8125 C 11.5 -25.070312 11.800781 -23.207031 12.40625 -21.21875 C 13.007812 -19.238281 13.8125 -17.40625 14.8125 -15.71875 C 15.820312 -14.039062 16.945312 -12.644531 18.1875 -11.53125 C 19.4375 -10.425781 20.664062 -9.875 21.875 -9.875 C 23.894531 -9.875 25.539062 -10.191406 26.8125 -10.828125 C 28.09375 -11.472656 29.101562 -12.363281 29.84375 -13.5 C 30.582031 -14.644531 31.085938 -15.988281 31.359375 -17.53125 C 31.628906 -19.082031 31.765625 -20.734375 31.765625 -22.484375 C 31.765625 -24.097656 31.59375 -25.441406 31.25 -26.515625 C 30.914062 -27.585938 30.582031 -28.929688 30.25 -30.546875 Z M 23.6875 -11.703125 C 21.945312 -11.703125 20.46875 -12.101562 19.25 -12.90625 C 18.039062 -13.707031 17.066406 -14.765625 16.328125 -16.078125 C 15.585938 -17.390625 15.050781 -18.867188 14.71875 -20.515625 C 14.382812 -22.160156 14.21875 -23.789062 14.21875 -25.40625 C 14.21875 -26.957031 14.367188 -28.488281 14.671875 -30 C 14.972656 -31.507812 15.410156 -32.867188 15.984375 -34.078125 C 16.554688 -35.285156 17.257812 -36.257812 18.09375 -37 C 18.9375 -37.738281 19.863281 -38.109375 20.875 -38.109375 C 23.488281 -38.109375 25.65625 -36.8125 27.375 -34.21875 C 29.09375 -31.632812 29.953125 -28.296875 29.953125 -24.203125 C 29.953125 -23.796875 29.832031 -22.953125 29.59375 -21.671875 C 29.351562 -20.398438 28.984375 -19.054688 28.484375 -17.640625 C 27.984375 -16.234375 27.363281 -14.941406 26.625 -13.765625 C 25.882812 -12.585938 25.007812 -11.898438 24 -11.703125 Z M 23.6875 -11.703125" transform="translate(288.227 82.455)"/></g></g></g><g fill="#1C2120"><g><g><path d="M 13.9375 -15.328125 C 13.9375 -15.347656 13.867188 -15.359375 13.734375 -15.359375 C 13.597656 -15.359375 13.484375 -15.347656 13.390625 -15.328125 C 12.660156 -15.046875 12.066406 -14.804688 11.609375 -14.609375 C 11.160156 -14.410156 10.78125 -14.238281 10.46875 -14.09375 C 10.15625 -13.945312 9.867188 -13.816406 9.609375 -13.703125 C 9.359375 -13.585938 9.078125 -13.46875 8.765625 -13.34375 C 8.453125 -13.226562 8.054688 -13.113281 7.578125 -13 C 7.109375 -12.882812 6.492188 -12.742188 5.734375 -12.578125 L 5.734375 -1.640625 C 5.734375 -1.265625 5.648438 -1.066406 5.484375 -1.046875 C 5.316406 -1.023438 5.132812 -1.101562 4.9375 -1.28125 C 4.738281 -1.457031 4.546875 -1.6875 4.359375 -1.96875 C 4.179688 -2.25 4.09375 -2.507812 4.09375 -2.75 C 4.070312 -3.226562 4.039062 -3.804688 4 -4.484375 C 3.957031 -5.171875 3.921875 -5.875 3.890625 -6.59375 C 3.859375 -7.320312 3.820312 -8.039062 3.78125 -8.75 C 3.738281 -9.46875 3.703125 -10.109375 3.671875 -10.671875 C 3.640625 -11.242188 3.613281 -11.703125 3.59375 -12.046875 L 3.5625 -12.578125 L 0.8125 -13.6875 C 0.769531 -13.707031 0.75 -13.78125 0.75 -13.90625 C 0.75 -14.03125 0.769531 -14.144531 0.8125 -14.25 C 0.925781 -14.457031 1.101562 -14.628906 1.34375 -14.765625 C 1.582031 -14.898438 1.835938 -15.003906 2.109375 -15.078125 C 2.378906 -15.148438 2.644531 -15.203125 2.90625 -15.234375 C 3.175781 -15.273438 3.394531 -15.304688 3.5625 -15.328125 C 3.5625 -15.640625 3.582031 -16.179688 3.625 -16.953125 C 3.664062 -17.734375 3.71875 -18.5625 3.78125 -19.4375 C 3.84375 -20.3125 3.898438 -21.132812 3.953125 -21.90625 C 4.003906 -22.6875 4.050781 -23.222656 4.09375 -23.515625 C 4.09375 -23.578125 4.148438 -23.738281 4.265625 -24 C 4.378906 -24.269531 4.515625 -24.5625 4.671875 -24.875 C 4.835938 -25.1875 5.015625 -25.476562 5.203125 -25.75 C 5.390625 -26.03125 5.5625 -26.222656 5.71875 -26.328125 C 5.875 -26.429688 6.003906 -26.40625 6.109375 -26.25 C 6.210938 -26.09375 6.265625 -25.738281 6.265625 -25.1875 C 6.265625 -25.0625 6.238281 -24.78125 6.1875 -24.34375 C 6.132812 -23.914062 6.070312 -23.457031 6 -22.96875 C 5.925781 -22.488281 5.863281 -22.035156 5.8125 -21.609375 C 5.757812 -21.179688 5.734375 -20.90625 5.734375 -20.78125 C 5.710938 -20.539062 5.695312 -20.140625 5.6875 -19.578125 C 5.675781 -19.023438 5.671875 -18.425781 5.671875 -17.78125 C 5.671875 -17.144531 5.675781 -16.539062 5.6875 -15.96875 C 5.695312 -15.40625 5.710938 -15.007812 5.734375 -14.78125 C 6.265625 -14.65625 6.957031 -14.632812 7.8125 -14.71875 C 8.675781 -14.800781 9.546875 -14.972656 10.421875 -15.234375 C 11.296875 -15.503906 12.109375 -15.832031 12.859375 -16.21875 C 13.617188 -16.601562 14.164062 -17.03125 14.5 -17.5 C 14.894531 -18.082031 15.195312 -18.753906 15.40625 -19.515625 C 15.625 -20.273438 15.816406 -21.046875 15.984375 -21.828125 C 16.148438 -22.617188 16.359375 -23.398438 16.609375 -24.171875 C 16.859375 -24.953125 17.238281 -25.660156 17.75 -26.296875 C 18.351562 -27.023438 18.953125 -27.523438 19.546875 -27.796875 C 20.148438 -28.078125 20.703125 -28.179688 21.203125 -28.109375 C 21.710938 -28.035156 22.148438 -27.8125 22.515625 -27.4375 C 22.890625 -27.070312 23.132812 -26.625 23.25 -26.09375 C 23.363281 -25.570312 23.34375 -24.988281 23.1875 -24.34375 C 23.03125 -23.707031 22.675781 -23.078125 22.125 -22.453125 C 21.976562 -22.273438 21.753906 -22.03125 21.453125 -21.71875 C 21.148438 -21.40625 20.800781 -21.046875 20.40625 -20.640625 C 20.019531 -20.242188 19.609375 -19.820312 19.171875 -19.375 C 18.742188 -18.9375 18.332031 -18.523438 17.9375 -18.140625 C 17.539062 -17.753906 17.175781 -17.398438 16.84375 -17.078125 C 16.519531 -16.765625 16.285156 -16.535156 16.140625 -16.390625 C 16.015625 -15.128906 15.972656 -13.816406 16.015625 -12.453125 C 16.054688 -11.085938 16.160156 -9.722656 16.328125 -8.359375 C 16.492188 -6.992188 16.703125 -5.644531 16.953125 -4.3125 C 17.210938 -2.988281 17.476562 -1.726562 17.75 -0.53125 L 15.609375 -0.53125 Z M 17.75 -22.984375 C 17.707031 -22.835938 17.632812 -22.582031 17.53125 -22.21875 C 17.425781 -21.863281 17.3125 -21.476562 17.1875 -21.0625 C 17.070312 -20.65625 16.96875 -20.269531 16.875 -19.90625 C 16.78125 -19.539062 16.710938 -19.285156 16.671875 -19.140625 C 17.304688 -19.453125 17.890625 -19.890625 18.421875 -20.453125 C 18.960938 -21.023438 19.429688 -21.625 19.828125 -22.25 C 20.222656 -22.882812 20.550781 -23.503906 20.8125 -24.109375 C 21.082031 -24.722656 21.253906 -25.238281 21.328125 -25.65625 C 21.398438 -26.082031 21.375 -26.367188 21.25 -26.515625 C 21.125 -26.660156 20.867188 -26.585938 20.484375 -26.296875 C 19.941406 -25.828125 19.410156 -25.328125 18.890625 -24.796875 C 18.378906 -24.273438 18 -23.671875 17.75 -22.984375 Z M 17.75 -22.984375" transform="translate(70.615 129.89)"/></g></g></g><g fill="#1C2120"><g><g><path d="M 1.359375 -0.53125 C 0.929688 -1.414062 0.703125 -2.3125 0.671875 -3.21875 C 0.640625 -4.125 0.6875 -5.046875 0.8125 -5.984375 C 0.832031 -6.285156 0.882812 -6.726562 0.96875 -7.3125 C 1.0625 -7.90625 1.160156 -8.554688 1.265625 -9.265625 C 1.367188 -9.984375 1.484375 -10.738281 1.609375 -11.53125 C 1.734375 -12.332031 1.847656 -13.085938 1.953125 -13.796875 C 2.054688 -14.515625 2.15625 -15.148438 2.25 -15.703125 C 2.34375 -16.265625 2.410156 -16.679688 2.453125 -16.953125 C 2.628906 -17.835938 2.816406 -18.585938 3.015625 -19.203125 C 3.210938 -19.828125 3.484375 -20.304688 3.828125 -20.640625 C 4.171875 -20.984375 4.617188 -21.164062 5.171875 -21.1875 C 5.734375 -21.207031 6.457031 -21.070312 7.34375 -20.78125 C 7.445312 -20.757812 7.5625 -20.675781 7.6875 -20.53125 C 7.8125 -20.394531 7.882812 -20.296875 7.90625 -20.234375 C 7.945312 -19.960938 8.023438 -19.539062 8.140625 -18.96875 C 8.265625 -18.40625 8.398438 -17.757812 8.546875 -17.03125 C 8.691406 -16.3125 8.84375 -15.554688 9 -14.765625 C 9.15625 -13.984375 9.304688 -13.226562 9.453125 -12.5 C 9.597656 -11.769531 9.726562 -11.117188 9.84375 -10.546875 C 9.96875 -9.984375 10.0625 -9.566406 10.125 -9.296875 C 10.4375 -7.804688 10.820312 -6.769531 11.28125 -6.1875 C 11.75 -5.613281 12.242188 -5.316406 12.765625 -5.296875 C 13.296875 -5.273438 13.835938 -5.445312 14.390625 -5.8125 C 14.941406 -6.1875 15.488281 -6.578125 16.03125 -6.984375 C 16.582031 -7.390625 17.097656 -7.738281 17.578125 -8.03125 C 18.066406 -8.332031 18.492188 -8.390625 18.859375 -8.203125 C 18.859375 -7.796875 18.757812 -7.40625 18.5625 -7.03125 C 18.375 -6.65625 18.148438 -6.300781 17.890625 -5.96875 C 17.628906 -5.644531 17.335938 -5.347656 17.015625 -5.078125 C 16.703125 -4.804688 16.410156 -4.570312 16.140625 -4.375 C 14.960938 -3.601562 13.976562 -3.195312 13.1875 -3.15625 C 12.40625 -3.113281 11.738281 -3.289062 11.1875 -3.6875 C 10.644531 -4.082031 10.203125 -4.628906 9.859375 -5.328125 C 9.523438 -6.023438 9.226562 -6.726562 8.96875 -7.4375 C 8.707031 -8.15625 8.453125 -8.789062 8.203125 -9.34375 C 7.960938 -9.90625 7.675781 -10.257812 7.34375 -10.40625 C 7.28125 -10.132812 7.148438 -9.660156 6.953125 -8.984375 C 6.753906 -8.304688 6.535156 -7.585938 6.296875 -6.828125 C 6.066406 -6.078125 5.847656 -5.363281 5.640625 -4.6875 C 5.429688 -4.019531 5.285156 -3.550781 5.203125 -3.28125 C 5.160156 -3.175781 5.070312 -2.972656 4.9375 -2.671875 C 4.800781 -2.378906 4.625 -2.0625 4.40625 -1.71875 C 4.195312 -1.375 3.960938 -1.035156 3.703125 -0.703125 C 3.441406 -0.378906 3.171875 -0.128906 2.890625 0.046875 C 2.617188 0.222656 2.347656 0.28125 2.078125 0.21875 C 1.804688 0.15625 1.566406 -0.09375 1.359375 -0.53125 Z M 3 -9.828125 C 2.957031 -9.578125 2.929688 -9.113281 2.921875 -8.4375 C 2.910156 -7.769531 2.90625 -7.054688 2.90625 -6.296875 C 2.90625 -5.546875 2.910156 -4.832031 2.921875 -4.15625 C 2.929688 -3.488281 2.957031 -3.019531 3 -2.75 C 3.726562 -3.851562 4.382812 -5.144531 4.96875 -6.625 C 5.5625 -8.113281 6.007812 -9.648438 6.3125 -11.234375 C 6.625 -12.828125 6.75 -14.40625 6.6875 -15.96875 C 6.625 -17.53125 6.304688 -18.953125 5.734375 -20.234375 C 5.378906 -19.585938 5.039062 -18.769531 4.71875 -17.78125 C 4.40625 -16.789062 4.132812 -15.785156 3.90625 -14.765625 C 3.675781 -13.742188 3.484375 -12.785156 3.328125 -11.890625 C 3.171875 -11.003906 3.0625 -10.316406 3 -9.828125 Z M 3 -9.828125" transform="translate(94.938 129.89)"/></g></g></g><g fill="#1C2120"><g><g><path d="M 2.453125 15.859375 C 2.035156 15.585938 1.691406 15.160156 1.421875 14.578125 C 1.148438 14.003906 0.925781 13.390625 0.75 12.734375 C 0.582031 12.085938 0.460938 11.445312 0.390625 10.8125 C 0.316406 10.1875 0.269531 9.679688 0.25 9.296875 C 0.164062 7.492188 0.140625 5.585938 0.171875 3.578125 C 0.203125 1.566406 0.382812 -0.425781 0.71875 -2.40625 C 1.0625 -4.394531 1.582031 -6.304688 2.28125 -8.140625 C 2.988281 -9.984375 3.960938 -11.648438 5.203125 -13.140625 C 5.847656 -13.921875 6.476562 -14.628906 7.09375 -15.265625 C 7.71875 -15.910156 8.375 -16.484375 9.0625 -16.984375 C 9.75 -17.492188 10.484375 -17.929688 11.265625 -18.296875 C 12.054688 -18.671875 12.945312 -18.960938 13.9375 -19.171875 C 14.84375 -19.359375 15.53125 -19.257812 16 -18.875 C 16.46875 -18.5 16.773438 -17.9375 16.921875 -17.1875 C 17.078125 -16.445312 17.078125 -15.566406 16.921875 -14.546875 C 16.773438 -13.523438 16.523438 -12.472656 16.171875 -11.390625 C 15.816406 -10.304688 15.378906 -9.25 14.859375 -8.21875 C 14.347656 -7.195312 13.796875 -6.296875 13.203125 -5.515625 C 12.617188 -4.734375 12.007812 -4.128906 11.375 -3.703125 C 10.75 -3.273438 10.140625 -3.132812 9.546875 -3.28125 C 9.460938 -3.425781 9.554688 -3.769531 9.828125 -4.3125 C 10.109375 -4.863281 10.472656 -5.535156 10.921875 -6.328125 C 11.367188 -7.128906 11.859375 -8.019531 12.390625 -9 C 12.929688 -9.976562 13.414062 -10.972656 13.84375 -11.984375 C 14.28125 -12.992188 14.617188 -13.976562 14.859375 -14.9375 C 15.097656 -15.90625 15.15625 -16.769531 15.03125 -17.53125 C 14.96875 -17.863281 14.78125 -18.0625 14.46875 -18.125 C 14.15625 -18.1875 13.8125 -18.175781 13.4375 -18.09375 C 13.070312 -18.007812 12.722656 -17.90625 12.390625 -17.78125 C 12.054688 -17.65625 11.847656 -17.570312 11.765625 -17.53125 C 10.160156 -16.832031 8.773438 -15.828125 7.609375 -14.515625 C 6.441406 -13.203125 5.457031 -11.695312 4.65625 -10 C 3.863281 -8.3125 3.238281 -6.507812 2.78125 -4.59375 C 2.332031 -2.6875 2.015625 -0.804688 1.828125 1.046875 C 1.640625 2.910156 1.566406 4.6875 1.609375 6.375 C 1.648438 8.070312 1.785156 9.535156 2.015625 10.765625 C 2.242188 11.992188 2.535156 12.925781 2.890625 13.5625 C 3.253906 14.207031 3.65625 14.425781 4.09375 14.21875 C 4.132812 14.195312 4.222656 14.113281 4.359375 13.96875 C 4.503906 13.820312 4.597656 13.71875 4.640625 13.65625 C 4.929688 12.769531 5.171875 11.800781 5.359375 10.75 C 5.546875 9.695312 5.6875 8.601562 5.78125 7.46875 C 5.875 6.332031 5.929688 5.1875 5.953125 4.03125 C 5.972656 2.875 5.972656 1.753906 5.953125 0.671875 C 5.929688 -0.410156 5.894531 -1.429688 5.84375 -2.390625 C 5.789062 -3.359375 5.742188 -4.210938 5.703125 -4.953125 C 5.640625 -5.097656 5.59375 -5.367188 5.5625 -5.765625 C 5.53125 -6.171875 5.507812 -6.601562 5.5 -7.0625 C 5.488281 -7.519531 5.5 -7.972656 5.53125 -8.421875 C 5.5625 -8.878906 5.628906 -9.222656 5.734375 -9.453125 C 5.835938 -9.679688 5.972656 -9.765625 6.140625 -9.703125 C 6.316406 -9.640625 6.539062 -9.335938 6.8125 -8.796875 C 6.851562 -8.523438 6.898438 -8.050781 6.953125 -7.375 C 7.003906 -6.707031 7.0625 -5.988281 7.125 -5.21875 C 7.1875 -4.445312 7.238281 -3.722656 7.28125 -3.046875 C 7.320312 -2.378906 7.34375 -1.910156 7.34375 -1.640625 C 7.363281 -1.347656 7.378906 -0.941406 7.390625 -0.421875 C 7.398438 0.0859375 7.40625 0.640625 7.40625 1.234375 L 7.40625 4.859375 C 7.40625 5.398438 7.398438 5.875 7.390625 6.28125 C 7.378906 6.695312 7.363281 6.96875 7.34375 7.09375 C 7.34375 7.28125 7.296875 7.648438 7.203125 8.203125 C 7.109375 8.765625 7.007812 9.363281 6.90625 10 C 6.800781 10.644531 6.6875 11.257812 6.5625 11.84375 C 6.4375 12.4375 6.335938 12.859375 6.265625 13.109375 C 6.140625 13.554688 5.960938 14.007812 5.734375 14.46875 C 5.503906 14.925781 5.222656 15.3125 4.890625 15.625 C 4.566406 15.945312 4.203125 16.144531 3.796875 16.21875 C 3.390625 16.289062 2.941406 16.171875 2.453125 15.859375 Z M 2.453125 15.859375" transform="translate(110.912 129.89)"/></g></g></g><g fill="#1C2120"><g><g><path d="M 2.453125 15.859375 C 2.035156 15.585938 1.691406 15.160156 1.421875 14.578125 C 1.148438 14.003906 0.925781 13.390625 0.75 12.734375 C 0.582031 12.085938 0.460938 11.445312 0.390625 10.8125 C 0.316406 10.1875 0.269531 9.679688 0.25 9.296875 C 0.164062 7.492188 0.140625 5.585938 0.171875 3.578125 C 0.203125 1.566406 0.382812 -0.425781 0.71875 -2.40625 C 1.0625 -4.394531 1.582031 -6.304688 2.28125 -8.140625 C 2.988281 -9.984375 3.960938 -11.648438 5.203125 -13.140625 C 5.847656 -13.921875 6.476562 -14.628906 7.09375 -15.265625 C 7.71875 -15.910156 8.375 -16.484375 9.0625 -16.984375 C 9.75 -17.492188 10.484375 -17.929688 11.265625 -18.296875 C 12.054688 -18.671875 12.945312 -18.960938 13.9375 -19.171875 C 14.84375 -19.359375 15.53125 -19.257812 16 -18.875 C 16.46875 -18.5 16.773438 -17.9375 16.921875 -17.1875 C 17.078125 -16.445312 17.078125 -15.566406 16.921875 -14.546875 C 16.773438 -13.523438 16.523438 -12.472656 16.171875 -11.390625 C 15.816406 -10.304688 15.378906 -9.25 14.859375 -8.21875 C 14.347656 -7.195312 13.796875 -6.296875 13.203125 -5.515625 C 12.617188 -4.734375 12.007812 -4.128906 11.375 -3.703125 C 10.75 -3.273438 10.140625 -3.132812 9.546875 -3.28125 C 9.460938 -3.425781 9.554688 -3.769531 9.828125 -4.3125 C 10.109375 -4.863281 10.472656 -5.535156 10.921875 -6.328125 C 11.367188 -7.128906 11.859375 -8.019531 12.390625 -9 C 12.929688 -9.976562 13.414062 -10.972656 13.84375 -11.984375 C 14.28125 -12.992188 14.617188 -13.976562 14.859375 -14.9375 C 15.097656 -15.90625 15.15625 -16.769531 15.03125 -17.53125 C 14.96875 -17.863281 14.78125 -18.0625 14.46875 -18.125 C 14.15625 -18.1875 13.8125 -18.175781 13.4375 -18.09375 C 13.070312 -18.007812 12.722656 -17.90625 12.390625 -17.78125 C 12.054688 -17.65625 11.847656 -17.570312 11.765625 -17.53125 C 10.160156 -16.832031 8.773438 -15.828125 7.609375 -14.515625 C 6.441406 -13.203125 5.457031 -11.695312 4.65625 -10 C 3.863281 -8.3125 3.238281 -6.507812 2.78125 -4.59375 C 2.332031 -2.6875 2.015625 -0.804688 1.828125 1.046875 C 1.640625 2.910156 1.566406 4.6875 1.609375 6.375 C 1.648438 8.070312 1.785156 9.535156 2.015625 10.765625 C 2.242188 11.992188 2.535156 12.925781 2.890625 13.5625 C 3.253906 14.207031 3.65625 14.425781 4.09375 14.21875 C 4.132812 14.195312 4.222656 14.113281 4.359375 13.96875 C 4.503906 13.820312 4.597656 13.71875 4.640625 13.65625 C 4.929688 12.769531 5.171875 11.800781 5.359375 10.75 C 5.546875 9.695312 5.6875 8.601562 5.78125 7.46875 C 5.875 6.332031 5.929688 5.1875 5.953125 4.03125 C 5.972656 2.875 5.972656 1.753906 5.953125 0.671875 C 5.929688 -0.410156 5.894531 -1.429688 5.84375 -2.390625 C 5.789062 -3.359375 5.742188 -4.210938 5.703125 -4.953125 C 5.640625 -5.097656 5.59375 -5.367188 5.5625 -5.765625 C 5.53125 -6.171875 5.507812 -6.601562 5.5 -7.0625 C 5.488281 -7.519531 5.5 -7.972656 5.53125 -8.421875 C 5.5625 -8.878906 5.628906 -9.222656 5.734375 -9.453125 C 5.835938 -9.679688 5.972656 -9.765625 6.140625 -9.703125 C 6.316406 -9.640625 6.539062 -9.335938 6.8125 -8.796875 C 6.851562 -8.523438 6.898438 -8.050781 6.953125 -7.375 C 7.003906 -6.707031 7.0625 -5.988281 7.125 -5.21875 C 7.1875 -4.445312 7.238281 -3.722656 7.28125 -3.046875 C 7.320312 -2.378906 7.34375 -1.910156 7.34375 -1.640625 C 7.363281 -1.347656 7.378906 -0.941406 7.390625 -0.421875 C 7.398438 0.0859375 7.40625 0.640625 7.40625 1.234375 L 7.40625 4.859375 C 7.40625 5.398438 7.398438 5.875 7.390625 6.28125 C 7.378906 6.695312 7.363281 6.96875 7.34375 7.09375 C 7.34375 7.28125 7.296875 7.648438 7.203125 8.203125 C 7.109375 8.765625 7.007812 9.363281 6.90625 10 C 6.800781 10.644531 6.6875 11.257812 6.5625 11.84375 C 6.4375 12.4375 6.335938 12.859375 6.265625 13.109375 C 6.140625 13.554688 5.960938 14.007812 5.734375 14.46875 C 5.503906 14.925781 5.222656 15.3125 4.890625 15.625 C 4.566406 15.945312 4.203125 16.144531 3.796875 16.21875 C 3.390625 16.289062 2.941406 16.171875 2.453125 15.859375 Z M 2.453125 15.859375" transform="translate(128.682 129.89)"/></g></g></g><g fill="#1C2120"><g><g><path d="M 13.421875 9.296875 C 12.898438 8.941406 12.539062 8.46875 12.34375 7.875 C 12.144531 7.289062 12.054688 6.640625 12.078125 5.921875 C 12.097656 5.210938 12.203125 4.460938 12.390625 3.671875 C 12.578125 2.878906 12.796875 2.113281 13.046875 1.375 C 13.296875 0.644531 13.554688 -0.03125 13.828125 -0.65625 C 14.109375 -1.289062 14.34375 -1.804688 14.53125 -2.203125 C 14.613281 -2.390625 14.75 -2.679688 14.9375 -3.078125 C 15.125 -3.484375 15.347656 -3.9375 15.609375 -4.4375 L 17.1875 -7.59375 C 17.4375 -8.101562 17.664062 -8.554688 17.875 -8.953125 C 18.082031 -9.347656 18.238281 -9.640625 18.34375 -9.828125 C 18.445312 -10.816406 18.378906 -11.59375 18.140625 -12.15625 C 17.898438 -12.726562 17.554688 -13.117188 17.109375 -13.328125 C 16.671875 -13.546875 16.160156 -13.597656 15.578125 -13.484375 C 15.003906 -13.378906 14.414062 -13.160156 13.8125 -12.828125 C 13.21875 -12.492188 12.640625 -12.066406 12.078125 -11.546875 C 11.523438 -11.035156 11.0625 -10.460938 10.6875 -9.828125 C 10.5625 -9.722656 10.335938 -9.476562 10.015625 -9.09375 C 9.703125 -8.707031 9.328125 -8.234375 8.890625 -7.671875 C 8.453125 -7.117188 7.960938 -6.515625 7.421875 -5.859375 C 6.890625 -5.210938 6.34375 -4.578125 5.78125 -3.953125 C 5.226562 -3.335938 4.6875 -2.765625 4.15625 -2.234375 C 3.632812 -1.710938 3.144531 -1.300781 2.6875 -1 C 2.238281 -0.707031 1.851562 -0.550781 1.53125 -0.53125 C 1.207031 -0.507812 0.976562 -0.703125 0.84375 -1.109375 C 0.820312 -1.128906 0.804688 -1.191406 0.796875 -1.296875 C 0.785156 -1.398438 0.78125 -1.507812 0.78125 -1.625 C 0.78125 -1.738281 0.785156 -1.847656 0.796875 -1.953125 C 0.804688 -2.054688 0.820312 -2.140625 0.84375 -2.203125 C 0.894531 -2.410156 0.988281 -2.851562 1.125 -3.53125 C 1.257812 -4.207031 1.414062 -4.992188 1.59375 -5.890625 C 1.769531 -6.796875 1.960938 -7.765625 2.171875 -8.796875 C 2.378906 -9.828125 2.570312 -10.789062 2.75 -11.6875 C 2.9375 -12.59375 3.101562 -13.375 3.25 -14.03125 C 3.394531 -14.695312 3.5 -15.140625 3.5625 -15.359375 C 3.601562 -15.546875 3.738281 -15.796875 3.96875 -16.109375 C 4.195312 -16.421875 4.457031 -16.679688 4.75 -16.890625 C 5.050781 -17.109375 5.34375 -17.207031 5.625 -17.1875 C 5.90625 -17.164062 6.132812 -16.921875 6.3125 -16.453125 C 6.09375 -16.140625 5.847656 -15.644531 5.578125 -14.96875 C 5.304688 -14.300781 5.035156 -13.546875 4.765625 -12.703125 C 4.503906 -11.859375 4.25 -10.96875 4 -10.03125 C 3.75 -9.101562 3.535156 -8.207031 3.359375 -7.34375 C 3.179688 -6.476562 3.0625 -5.679688 3 -4.953125 C 2.9375 -4.234375 2.945312 -3.675781 3.03125 -3.28125 C 3.90625 -4.476562 4.890625 -5.75 5.984375 -7.09375 C 7.078125 -8.4375 8.191406 -9.707031 9.328125 -10.90625 C 10.460938 -12.101562 11.59375 -13.144531 12.71875 -14.03125 C 13.84375 -14.914062 14.882812 -15.484375 15.84375 -15.734375 C 16.800781 -15.984375 17.640625 -15.835938 18.359375 -15.296875 C 19.085938 -14.765625 19.628906 -13.679688 19.984375 -12.046875 L 23.828125 -15.328125 L 25.46875 -15.328125 C 25.65625 -14.734375 25.648438 -14.332031 25.453125 -14.125 C 25.253906 -13.914062 24.960938 -13.753906 24.578125 -13.640625 C 24.203125 -13.523438 23.789062 -13.394531 23.34375 -13.25 C 22.894531 -13.113281 22.515625 -12.835938 22.203125 -12.421875 C 21.898438 -12.003906 21.71875 -11.382812 21.65625 -10.5625 C 21.59375 -9.738281 21.757812 -8.582031 22.15625 -7.09375 C 22.457031 -6.039062 22.664062 -4.957031 22.78125 -3.84375 C 22.894531 -2.726562 22.878906 -1.625 22.734375 -0.53125 C 22.671875 -0.0507812 22.503906 0.597656 22.234375 1.421875 C 21.972656 2.253906 21.628906 3.125 21.203125 4.03125 C 20.785156 4.9375 20.296875 5.816406 19.734375 6.671875 C 19.171875 7.535156 18.554688 8.25 17.890625 8.8125 C 17.222656 9.382812 16.507812 9.738281 15.75 9.875 C 15 10.019531 14.222656 9.828125 13.421875 9.296875 Z M 13.96875 6.5625 C 14.132812 7.351562 14.410156 7.851562 14.796875 8.0625 C 15.191406 8.28125 15.640625 8.257812 16.140625 8 C 16.640625 7.75 17.164062 7.296875 17.71875 6.640625 C 18.28125 5.992188 18.796875 5.21875 19.265625 4.3125 C 19.742188 3.414062 20.148438 2.414062 20.484375 1.3125 C 20.828125 0.207031 21.035156 -0.921875 21.109375 -2.078125 C 21.179688 -3.234375 21.085938 -4.382812 20.828125 -5.53125 C 20.578125 -6.675781 20.109375 -7.753906 19.421875 -8.765625 C 18.929688 -8.410156 18.445312 -7.863281 17.96875 -7.125 C 17.488281 -6.382812 17.03125 -5.539062 16.59375 -4.59375 C 16.164062 -3.65625 15.757812 -2.65625 15.375 -1.59375 C 15 -0.53125 14.691406 0.507812 14.453125 1.53125 C 14.210938 2.550781 14.046875 3.5 13.953125 4.375 C 13.859375 5.257812 13.863281 5.988281 13.96875 6.5625 Z M 13.96875 6.5625" transform="translate(146.451 129.89)"/></g></g></g><g fill="#1C2120"><g><g><path d="M 13.9375 -15.328125 C 13.9375 -15.347656 13.867188 -15.359375 13.734375 -15.359375 C 13.597656 -15.359375 13.484375 -15.347656 13.390625 -15.328125 C 12.660156 -15.046875 12.066406 -14.804688 11.609375 -14.609375 C 11.160156 -14.410156 10.78125 -14.238281 10.46875 -14.09375 C 10.15625 -13.945312 9.867188 -13.816406 9.609375 -13.703125 C 9.359375 -13.585938 9.078125 -13.46875 8.765625 -13.34375 C 8.453125 -13.226562 8.054688 -13.113281 7.578125 -13 C 7.109375 -12.882812 6.492188 -12.742188 5.734375 -12.578125 L 5.734375 -1.640625 C 5.734375 -1.265625 5.648438 -1.066406 5.484375 -1.046875 C 5.316406 -1.023438 5.132812 -1.101562 4.9375 -1.28125 C 4.738281 -1.457031 4.546875 -1.6875 4.359375 -1.96875 C 4.179688 -2.25 4.09375 -2.507812 4.09375 -2.75 C 4.070312 -3.226562 4.039062 -3.804688 4 -4.484375 C 3.957031 -5.171875 3.921875 -5.875 3.890625 -6.59375 C 3.859375 -7.320312 3.820312 -8.039062 3.78125 -8.75 C 3.738281 -9.46875 3.703125 -10.109375 3.671875 -10.671875 C 3.640625 -11.242188 3.613281 -11.703125 3.59375 -12.046875 L 3.5625 -12.578125 L 0.8125 -13.6875 C 0.769531 -13.707031 0.75 -13.78125 0.75 -13.90625 C 0.75 -14.03125 0.769531 -14.144531 0.8125 -14.25 C 0.925781 -14.457031 1.101562 -14.628906 1.34375 -14.765625 C 1.582031 -14.898438 1.835938 -15.003906 2.109375 -15.078125 C 2.378906 -15.148438 2.644531 -15.203125 2.90625 -15.234375 C 3.175781 -15.273438 3.394531 -15.304688 3.5625 -15.328125 C 3.5625 -15.640625 3.582031 -16.179688 3.625 -16.953125 C 3.664062 -17.734375 3.71875 -18.5625 3.78125 -19.4375 C 3.84375 -20.3125 3.898438 -21.132812 3.953125 -21.90625 C 4.003906 -22.6875 4.050781 -23.222656 4.09375 -23.515625 C 4.09375 -23.578125 4.148438 -23.738281 4.265625 -24 C 4.378906 -24.269531 4.515625 -24.5625 4.671875 -24.875 C 4.835938 -25.1875 5.015625 -25.476562 5.203125 -25.75 C 5.390625 -26.03125 5.5625 -26.222656 5.71875 -26.328125 C 5.875 -26.429688 6.003906 -26.40625 6.109375 -26.25 C 6.210938 -26.09375 6.265625 -25.738281 6.265625 -25.1875 C 6.265625 -25.0625 6.238281 -24.78125 6.1875 -24.34375 C 6.132812 -23.914062 6.070312 -23.457031 6 -22.96875 C 5.925781 -22.488281 5.863281 -22.035156 5.8125 -21.609375 C 5.757812 -21.179688 5.734375 -20.90625 5.734375 -20.78125 C 5.710938 -20.539062 5.695312 -20.140625 5.6875 -19.578125 C 5.675781 -19.023438 5.671875 -18.425781 5.671875 -17.78125 C 5.671875 -17.144531 5.675781 -16.539062 5.6875 -15.96875 C 5.695312 -15.40625 5.710938 -15.007812 5.734375 -14.78125 C 6.265625 -14.65625 6.957031 -14.632812 7.8125 -14.71875 C 8.675781 -14.800781 9.546875 -14.972656 10.421875 -15.234375 C 11.296875 -15.503906 12.109375 -15.832031 12.859375 -16.21875 C 13.617188 -16.601562 14.164062 -17.03125 14.5 -17.5 C 14.894531 -18.082031 15.195312 -18.753906 15.40625 -19.515625 C 15.625 -20.273438 15.816406 -21.046875 15.984375 -21.828125 C 16.148438 -22.617188 16.359375 -23.398438 16.609375 -24.171875 C 16.859375 -24.953125 17.238281 -25.660156 17.75 -26.296875 C 18.351562 -27.023438 18.953125 -27.523438 19.546875 -27.796875 C 20.148438 -28.078125 20.703125 -28.179688 21.203125 -28.109375 C 21.710938 -28.035156 22.148438 -27.8125 22.515625 -27.4375 C 22.890625 -27.070312 23.132812 -26.625 23.25 -26.09375 C 23.363281 -25.570312 23.34375 -24.988281 23.1875 -24.34375 C 23.03125 -23.707031 22.675781 -23.078125 22.125 -22.453125 C 21.976562 -22.273438 21.753906 -22.03125 21.453125 -21.71875 C 21.148438 -21.40625 20.800781 -21.046875 20.40625 -20.640625 C 20.019531 -20.242188 19.609375 -19.820312 19.171875 -19.375 C 18.742188 -18.9375 18.332031 -18.523438 17.9375 -18.140625 C 17.539062 -17.753906 17.175781 -17.398438 16.84375 -17.078125 C 16.519531 -16.765625 16.285156 -16.535156 16.140625 -16.390625 C 16.015625 -15.128906 15.972656 -13.816406 16.015625 -12.453125 C 16.054688 -11.085938 16.160156 -9.722656 16.328125 -8.359375 C 16.492188 -6.992188 16.703125 -5.644531 16.953125 -4.3125 C 17.210938 -2.988281 17.476562 -1.726562 17.75 -0.53125 L 15.609375 -0.53125 Z M 17.75 -22.984375 C 17.707031 -22.835938 17.632812 -22.582031 17.53125 -22.21875 C 17.425781 -21.863281 17.3125 -21.476562 17.1875 -21.0625 C 17.070312 -20.65625 16.96875 -20.269531 16.875 -19.90625 C 16.78125 -19.539062 16.710938 -19.285156 16.671875 -19.140625 C 17.304688 -19.453125 17.890625 -19.890625 18.421875 -20.453125 C 18.960938 -21.023438 19.429688 -21.625 19.828125 -22.25 C 20.222656 -22.882812 20.550781 -23.503906 20.8125 -24.109375 C 21.082031 -24.722656 21.253906 -25.238281 21.328125 -25.65625 C 21.398438 -26.082031 21.375 -26.367188 21.25 -26.515625 C 21.125 -26.660156 20.867188 -26.585938 20.484375 -26.296875 C 19.941406 -25.828125 19.410156 -25.328125 18.890625 -24.796875 C 18.378906 -24.273438 18 -23.671875 17.75 -22.984375 Z M 17.75 -22.984375" transform="translate(186.622 129.89)"/></g></g></g><g fill="#1C2120"><g><g><path d="M 1.359375 -0.53125 C 0.929688 -1.414062 0.703125 -2.3125 0.671875 -3.21875 C 0.640625 -4.125 0.6875 -5.046875 0.8125 -5.984375 C 0.832031 -6.285156 0.882812 -6.726562 0.96875 -7.3125 C 1.0625 -7.90625 1.160156 -8.554688 1.265625 -9.265625 C 1.367188 -9.984375 1.484375 -10.738281 1.609375 -11.53125 C 1.734375 -12.332031 1.847656 -13.085938 1.953125 -13.796875 C 2.054688 -14.515625 2.15625 -15.148438 2.25 -15.703125 C 2.34375 -16.265625 2.410156 -16.679688 2.453125 -16.953125 C 2.628906 -17.835938 2.816406 -18.585938 3.015625 -19.203125 C 3.210938 -19.828125 3.484375 -20.304688 3.828125 -20.640625 C 4.171875 -20.984375 4.617188 -21.164062 5.171875 -21.1875 C 5.734375 -21.207031 6.457031 -21.070312 7.34375 -20.78125 C 7.445312 -20.757812 7.5625 -20.675781 7.6875 -20.53125 C 7.8125 -20.394531 7.882812 -20.296875 7.90625 -20.234375 C 7.945312 -19.960938 8.023438 -19.539062 8.140625 -18.96875 C 8.265625 -18.40625 8.398438 -17.757812 8.546875 -17.03125 C 8.691406 -16.3125 8.84375 -15.554688 9 -14.765625 C 9.15625 -13.984375 9.304688 -13.226562 9.453125 -12.5 C 9.597656 -11.769531 9.726562 -11.117188 9.84375 -10.546875 C 9.96875 -9.984375 10.0625 -9.566406 10.125 -9.296875 C 10.4375 -7.804688 10.820312 -6.769531 11.28125 -6.1875 C 11.75 -5.613281 12.242188 -5.316406 12.765625 -5.296875 C 13.296875 -5.273438 13.835938 -5.445312 14.390625 -5.8125 C 14.941406 -6.1875 15.488281 -6.578125 16.03125 -6.984375 C 16.582031 -7.390625 17.097656 -7.738281 17.578125 -8.03125 C 18.066406 -8.332031 18.492188 -8.390625 18.859375 -8.203125 C 18.859375 -7.796875 18.757812 -7.40625 18.5625 -7.03125 C 18.375 -6.65625 18.148438 -6.300781 17.890625 -5.96875 C 17.628906 -5.644531 17.335938 -5.347656 17.015625 -5.078125 C 16.703125 -4.804688 16.410156 -4.570312 16.140625 -4.375 C 14.960938 -3.601562 13.976562 -3.195312 13.1875 -3.15625 C 12.40625 -3.113281 11.738281 -3.289062 11.1875 -3.6875 C 10.644531 -4.082031 10.203125 -4.628906 9.859375 -5.328125 C 9.523438 -6.023438 9.226562 -6.726562 8.96875 -7.4375 C 8.707031 -8.15625 8.453125 -8.789062 8.203125 -9.34375 C 7.960938 -9.90625 7.675781 -10.257812 7.34375 -10.40625 C 7.28125 -10.132812 7.148438 -9.660156 6.953125 -8.984375 C 6.753906 -8.304688 6.535156 -7.585938 6.296875 -6.828125 C 6.066406 -6.078125 5.847656 -5.363281 5.640625 -4.6875 C 5.429688 -4.019531 5.285156 -3.550781 5.203125 -3.28125 C 5.160156 -3.175781 5.070312 -2.972656 4.9375 -2.671875 C 4.800781 -2.378906 4.625 -2.0625 4.40625 -1.71875 C 4.195312 -1.375 3.960938 -1.035156 3.703125 -0.703125 C 3.441406 -0.378906 3.171875 -0.128906 2.890625 0.046875 C 2.617188 0.222656 2.347656 0.28125 2.078125 0.21875 C 1.804688 0.15625 1.566406 -0.09375 1.359375 -0.53125 Z M 3 -9.828125 C 2.957031 -9.578125 2.929688 -9.113281 2.921875 -8.4375 C 2.910156 -7.769531 2.90625 -7.054688 2.90625 -6.296875 C 2.90625 -5.546875 2.910156 -4.832031 2.921875 -4.15625 C 2.929688 -3.488281 2.957031 -3.019531 3 -2.75 C 3.726562 -3.851562 4.382812 -5.144531 4.96875 -6.625 C 5.5625 -8.113281 6.007812 -9.648438 6.3125 -11.234375 C 6.625 -12.828125 6.75 -14.40625 6.6875 -15.96875 C 6.625 -17.53125 6.304688 -18.953125 5.734375 -20.234375 C 5.378906 -19.585938 5.039062 -18.769531 4.71875 -17.78125 C 4.40625 -16.789062 4.132812 -15.785156 3.90625 -14.765625 C 3.675781 -13.742188 3.484375 -12.785156 3.328125 -11.890625 C 3.171875 -11.003906 3.0625 -10.316406 3 -9.828125 Z M 3 -9.828125" transform="translate(210.945 129.89)"/></g></g></g><g fill="#1C2120"><g><g><path d="M 4.15625 -0.28125 C 4.050781 -0.59375 4.125 -0.925781 4.375 -1.28125 C 4.632812 -1.644531 4.992188 -2.007812 5.453125 -2.375 C 5.910156 -2.75 6.425781 -3.125 7 -3.5 C 7.582031 -3.875 8.140625 -4.238281 8.671875 -4.59375 C 9.210938 -4.957031 9.6875 -5.300781 10.09375 -5.625 C 10.507812 -5.945312 10.789062 -6.257812 10.9375 -6.5625 C 11.25 -7.1875 11.515625 -7.921875 11.734375 -8.765625 C 11.960938 -9.609375 12.113281 -10.421875 12.1875 -11.203125 C 12.257812 -11.992188 12.253906 -12.707031 12.171875 -13.34375 C 12.085938 -13.988281 11.882812 -14.425781 11.5625 -14.65625 C 11.25 -14.882812 10.816406 -14.851562 10.265625 -14.5625 C 9.722656 -14.269531 9.035156 -13.609375 8.203125 -12.578125 C 7.960938 -12.285156 7.6875 -11.765625 7.375 -11.015625 C 7.0625 -10.273438 6.722656 -9.453125 6.359375 -8.546875 C 6.003906 -7.640625 5.640625 -6.726562 5.265625 -5.8125 C 4.890625 -4.894531 4.515625 -4.117188 4.140625 -3.484375 C 3.773438 -2.859375 3.421875 -2.445312 3.078125 -2.25 C 2.742188 -2.050781 2.453125 -2.21875 2.203125 -2.75 C 2.203125 -2.894531 2.207031 -3.144531 2.21875 -3.5 C 2.226562 -3.851562 2.234375 -4.234375 2.234375 -4.640625 C 2.234375 -5.054688 2.226562 -5.441406 2.21875 -5.796875 C 2.207031 -6.160156 2.203125 -6.414062 2.203125 -6.5625 C 2.140625 -7.988281 2.066406 -9.382812 1.984375 -10.75 C 1.898438 -12.113281 1.8125 -13.46875 1.71875 -14.8125 C 1.625 -16.15625 1.523438 -17.5 1.421875 -18.84375 C 1.316406 -20.195312 1.210938 -21.578125 1.109375 -22.984375 C 1.066406 -23.585938 1.085938 -23.992188 1.171875 -24.203125 C 1.253906 -24.421875 1.367188 -24.492188 1.515625 -24.421875 C 1.660156 -24.347656 1.832031 -24.148438 2.03125 -23.828125 C 2.226562 -23.515625 2.414062 -23.132812 2.59375 -22.6875 C 2.78125 -22.25 2.9375 -21.765625 3.0625 -21.234375 C 3.1875 -20.710938 3.257812 -20.203125 3.28125 -19.703125 C 3.28125 -19.453125 3.296875 -19.050781 3.328125 -18.5 C 3.359375 -17.957031 3.394531 -17.34375 3.4375 -16.65625 C 3.476562 -15.976562 3.519531 -15.257812 3.5625 -14.5 C 3.601562 -13.738281 3.640625 -13.015625 3.671875 -12.328125 C 3.703125 -11.648438 3.734375 -11.035156 3.765625 -10.484375 C 3.796875 -9.941406 3.820312 -9.546875 3.84375 -9.296875 C 4.3125 -9.628906 4.707031 -10.039062 5.03125 -10.53125 C 5.351562 -11.03125 5.664062 -11.535156 5.96875 -12.046875 C 6.28125 -12.566406 6.609375 -13.066406 6.953125 -13.546875 C 7.296875 -14.035156 7.710938 -14.445312 8.203125 -14.78125 C 9.546875 -15.625 10.65625 -16.082031 11.53125 -16.15625 C 12.414062 -16.226562 13.09375 -16.023438 13.5625 -15.546875 C 14.039062 -15.078125 14.320312 -14.398438 14.40625 -13.515625 C 14.488281 -12.640625 14.40625 -11.660156 14.15625 -10.578125 C 13.90625 -9.492188 13.5 -8.367188 12.9375 -7.203125 C 12.382812 -6.035156 11.703125 -4.941406 10.890625 -3.921875 C 10.078125 -2.898438 9.144531 -2.007812 8.09375 -1.25 C 7.050781 -0.5 5.910156 0 4.671875 0.25 L 4.375 0 C 4.25 -0.144531 4.175781 -0.238281 4.15625 -0.28125 Z M 4.15625 -0.28125" transform="translate(226.918 129.89)"/></g></g></g><g fill="#1C2120"><g><g><path d="M 1.109375 -1.640625 C 1.066406 -1.722656 1.007812 -1.882812 0.9375 -2.125 C 0.875 -2.363281 0.8125 -2.628906 0.75 -2.921875 C 0.6875 -3.222656 0.632812 -3.507812 0.59375 -3.78125 C 0.550781 -4.050781 0.53125 -4.25 0.53125 -4.375 L 0.53125 -19.703125 C 0.53125 -19.910156 0.625 -20.054688 0.8125 -20.140625 C 1.007812 -20.222656 1.226562 -20.269531 1.46875 -20.28125 C 1.707031 -20.289062 1.925781 -20.285156 2.125 -20.265625 C 2.320312 -20.242188 2.429688 -20.234375 2.453125 -20.234375 L 2.453125 -3.28125 C 2.453125 -2.925781 2.566406 -2.628906 2.796875 -2.390625 C 3.035156 -2.160156 3.3125 -1.976562 3.625 -1.84375 C 3.9375 -1.707031 4.257812 -1.625 4.59375 -1.59375 C 4.9375 -1.5625 5.222656 -1.578125 5.453125 -1.640625 C 5.742188 -1.203125 5.738281 -0.847656 5.4375 -0.578125 C 5.132812 -0.316406 4.703125 -0.171875 4.140625 -0.140625 C 3.585938 -0.109375 3.007812 -0.210938 2.40625 -0.453125 C 1.8125 -0.691406 1.378906 -1.085938 1.109375 -1.640625 Z M 0 -25.1875 C 0 -25.800781 0.238281 -26.195312 0.71875 -26.375 C 1.207031 -26.550781 1.703125 -26.523438 2.203125 -26.296875 L 2.203125 -24.625 C 2.140625 -24.601562 2.03125 -24.585938 1.875 -24.578125 C 1.71875 -24.566406 1.550781 -24.5625 1.375 -24.5625 C 1.195312 -24.5625 1.023438 -24.566406 0.859375 -24.578125 C 0.703125 -24.585938 0.59375 -24.601562 0.53125 -24.625 C 0.445312 -24.644531 0.335938 -24.726562 0.203125 -24.875 C 0.0664062 -25.019531 0 -25.125 0 -25.1875 Z M 0 -25.1875" transform="translate(241.947 129.89)"/></g></g></g><g fill="#1C2120"><g><g><path d="M 9.015625 -2.203125 C 8.554688 -2.984375 8.195312 -3.863281 7.9375 -4.84375 C 7.6875 -5.820312 7.507812 -6.820312 7.40625 -7.84375 C 7.300781 -8.875 7.253906 -9.894531 7.265625 -10.90625 C 7.273438 -11.914062 7.300781 -12.84375 7.34375 -13.6875 C 7.050781 -13.769531 6.710938 -13.742188 6.328125 -13.609375 C 5.953125 -13.484375 5.554688 -13.320312 5.140625 -13.125 C 4.722656 -12.925781 4.289062 -12.710938 3.84375 -12.484375 C 3.40625 -12.253906 2.992188 -12.085938 2.609375 -11.984375 C 2.234375 -11.878906 1.890625 -11.859375 1.578125 -11.921875 C 1.265625 -11.984375 1.007812 -12.203125 0.8125 -12.578125 C 0.625 -12.929688 0.640625 -13.210938 0.859375 -13.421875 C 1.085938 -13.640625 1.414062 -13.804688 1.84375 -13.921875 C 2.269531 -14.035156 2.765625 -14.117188 3.328125 -14.171875 C 3.898438 -14.222656 4.4375 -14.289062 4.9375 -14.375 C 5.445312 -14.457031 5.878906 -14.566406 6.234375 -14.703125 C 6.597656 -14.835938 6.789062 -15.046875 6.8125 -15.328125 L 7.90625 -27.328125 C 7.925781 -27.515625 8.023438 -27.660156 8.203125 -27.765625 C 8.390625 -27.878906 8.582031 -27.9375 8.78125 -27.9375 C 8.976562 -27.9375 9.15625 -27.882812 9.3125 -27.78125 C 9.46875 -27.6875 9.546875 -27.535156 9.546875 -27.328125 L 9.546875 -16.953125 C 9.847656 -16.890625 10.132812 -16.894531 10.40625 -16.96875 C 10.675781 -17.050781 10.945312 -17.144531 11.21875 -17.25 C 11.488281 -17.351562 11.753906 -17.4375 12.015625 -17.5 C 12.285156 -17.5625 12.566406 -17.5625 12.859375 -17.5 C 12.984375 -17.269531 12.960938 -17.050781 12.796875 -16.84375 C 12.628906 -16.644531 12.460938 -16.492188 12.296875 -16.390625 L 11.734375 -16.046875 C 11.472656 -15.898438 11.203125 -15.738281 10.921875 -15.5625 C 10.640625 -15.382812 10.363281 -15.21875 10.09375 -15.0625 C 9.832031 -14.914062 9.648438 -14.820312 9.546875 -14.78125 C 9.523438 -14.488281 9.507812 -13.976562 9.5 -13.25 C 9.488281 -12.53125 9.484375 -11.757812 9.484375 -10.9375 C 9.484375 -10.113281 9.488281 -9.335938 9.5 -8.609375 C 9.507812 -7.890625 9.523438 -7.382812 9.546875 -7.09375 C 9.628906 -6.101562 9.816406 -5.195312 10.109375 -4.375 C 10.410156 -3.5625 10.8125 -2.921875 11.3125 -2.453125 C 11.820312 -1.992188 12.425781 -1.765625 13.125 -1.765625 C 13.832031 -1.765625 14.660156 -2.09375 15.609375 -2.75 C 15.753906 -2.257812 15.742188 -1.820312 15.578125 -1.4375 C 15.410156 -1.0625 15.132812 -0.765625 14.75 -0.546875 C 14.375 -0.328125 13.921875 -0.1875 13.390625 -0.125 C 12.867188 -0.0625 12.335938 -0.09375 11.796875 -0.21875 C 11.265625 -0.34375 10.742188 -0.566406 10.234375 -0.890625 C 9.734375 -1.222656 9.328125 -1.660156 9.015625 -2.203125 Z M 9.015625 -2.203125" transform="translate(248.248 129.89)"/></g></g></g><g fill="#1C2120"><g><g><path d="M 1.109375 -1.640625 C 1.066406 -1.722656 1.007812 -1.882812 0.9375 -2.125 C 0.875 -2.363281 0.8125 -2.628906 0.75 -2.921875 C 0.6875 -3.222656 0.632812 -3.507812 0.59375 -3.78125 C 0.550781 -4.050781 0.53125 -4.25 0.53125 -4.375 L 0.53125 -19.703125 C 0.53125 -19.910156 0.625 -20.054688 0.8125 -20.140625 C 1.007812 -20.222656 1.226562 -20.269531 1.46875 -20.28125 C 1.707031 -20.289062 1.925781 -20.285156 2.125 -20.265625 C 2.320312 -20.242188 2.429688 -20.234375 2.453125 -20.234375 L 2.453125 -3.28125 C 2.453125 -2.925781 2.566406 -2.628906 2.796875 -2.390625 C 3.035156 -2.160156 3.3125 -1.976562 3.625 -1.84375 C 3.9375 -1.707031 4.257812 -1.625 4.59375 -1.59375 C 4.9375 -1.5625 5.222656 -1.578125 5.453125 -1.640625 C 5.742188 -1.203125 5.738281 -0.847656 5.4375 -0.578125 C 5.132812 -0.316406 4.703125 -0.171875 4.140625 -0.140625 C 3.585938 -0.109375 3.007812 -0.210938 2.40625 -0.453125 C 1.8125 -0.691406 1.378906 -1.085938 1.109375 -1.640625 Z M 0 -25.1875 C 0 -25.800781 0.238281 -26.195312 0.71875 -26.375 C 1.207031 -26.550781 1.703125 -26.523438 2.203125 -26.296875 L 2.203125 -24.625 C 2.140625 -24.601562 2.03125 -24.585938 1.875 -24.578125 C 1.71875 -24.566406 1.550781 -24.5625 1.375 -24.5625 C 1.195312 -24.5625 1.023438 -24.566406 0.859375 -24.578125 C 0.703125 -24.585938 0.59375 -24.601562 0.53125 -24.625 C 0.445312 -24.644531 0.335938 -24.726562 0.203125 -24.875 C 0.0664062 -25.019531 0 -25.125 0 -25.1875 Z M 0 -25.1875" transform="translate(262.268 129.89)"/></g></g></g><g fill="#1C2120"><g><g><path d="M 2.203125 -0.53125 C 2.222656 -0.8125 2.234375 -1.285156 2.234375 -1.953125 L 2.234375 -6.234375 C 2.234375 -6.910156 2.222656 -7.382812 2.203125 -7.65625 C 2.179688 -7.78125 2.144531 -8.050781 2.09375 -8.46875 C 2.039062 -8.894531 1.976562 -9.390625 1.90625 -9.953125 C 1.832031 -10.523438 1.753906 -11.125 1.671875 -11.75 C 1.585938 -12.382812 1.503906 -12.984375 1.421875 -13.546875 C 1.335938 -14.117188 1.269531 -14.613281 1.21875 -15.03125 C 1.164062 -15.457031 1.128906 -15.742188 1.109375 -15.890625 C 1.066406 -16.179688 1.050781 -16.484375 1.0625 -16.796875 C 1.070312 -17.117188 1.128906 -17.394531 1.234375 -17.625 C 1.335938 -17.851562 1.503906 -18.015625 1.734375 -18.109375 C 1.960938 -18.203125 2.300781 -18.175781 2.75 -18.03125 C 2.769531 -17.59375 2.804688 -17.070312 2.859375 -16.46875 C 2.910156 -15.875 2.976562 -15.25 3.0625 -14.59375 C 3.144531 -13.945312 3.25 -13.304688 3.375 -12.671875 C 3.5 -12.046875 3.65625 -11.46875 3.84375 -10.9375 C 4.113281 -11.71875 4.378906 -12.40625 4.640625 -13 C 4.910156 -13.601562 5.210938 -14.15625 5.546875 -14.65625 C 5.878906 -15.164062 6.253906 -15.644531 6.671875 -16.09375 C 7.097656 -16.539062 7.609375 -17.007812 8.203125 -17.5 C 8.929688 -18.101562 9.539062 -18.347656 10.03125 -18.234375 C 10.53125 -18.117188 10.941406 -17.757812 11.265625 -17.15625 C 11.597656 -16.5625 11.867188 -15.789062 12.078125 -14.84375 C 12.285156 -13.894531 12.472656 -12.890625 12.640625 -11.828125 C 12.804688 -10.773438 12.976562 -9.738281 13.15625 -8.71875 C 13.332031 -7.695312 13.554688 -6.8125 13.828125 -6.0625 C 14.109375 -5.320312 14.453125 -4.773438 14.859375 -4.421875 C 15.273438 -4.078125 15.796875 -4.0625 16.421875 -4.375 C 16.609375 -3.8125 16.632812 -3.398438 16.5 -3.140625 C 16.363281 -2.878906 16.132812 -2.726562 15.8125 -2.6875 C 15.488281 -2.65625 15.101562 -2.738281 14.65625 -2.9375 C 14.21875 -3.144531 13.78125 -3.421875 13.34375 -3.765625 C 12.914062 -4.109375 12.535156 -4.519531 12.203125 -5 C 11.867188 -5.488281 11.632812 -6.007812 11.5 -6.5625 C 11.414062 -6.9375 11.34375 -7.550781 11.28125 -8.40625 C 11.21875 -9.269531 11.125 -10.195312 11 -11.1875 C 10.875 -12.175781 10.679688 -13.148438 10.421875 -14.109375 C 10.160156 -15.066406 9.785156 -15.828125 9.296875 -16.390625 L 7.09375 -14.25 C 7.03125 -14.164062 6.875 -13.785156 6.625 -13.109375 C 6.382812 -12.441406 6.117188 -11.671875 5.828125 -10.796875 C 5.535156 -9.921875 5.253906 -9.035156 4.984375 -8.140625 C 4.710938 -7.253906 4.507812 -6.535156 4.375 -5.984375 C 4.332031 -5.796875 4.28125 -5.441406 4.21875 -4.921875 C 4.15625 -4.410156 4.09375 -3.859375 4.03125 -3.265625 C 3.96875 -2.679688 3.921875 -2.128906 3.890625 -1.609375 C 3.859375 -1.097656 3.84375 -0.738281 3.84375 -0.53125 C 3.65625 -0.15625 3.378906 0.03125 3.015625 0.03125 C 2.660156 0.03125 2.390625 -0.15625 2.203125 -0.53125 Z M 2.203125 -0.53125" transform="translate(268.57 129.89)"/></g></g></g><g fill="#1C2120"><g><g><path d="M 5.984375 9.296875 C 5.335938 8.648438 5 7.847656 4.96875 6.890625 C 4.9375 5.929688 5.097656 4.898438 5.453125 3.796875 C 5.804688 2.691406 6.296875 1.5625 6.921875 0.40625 C 7.554688 -0.75 8.210938 -1.867188 8.890625 -2.953125 C 9.566406 -4.035156 10.191406 -5.03125 10.765625 -5.9375 C 11.335938 -6.851562 11.765625 -7.609375 12.046875 -8.203125 C 12.191406 -8.535156 12.226562 -9.007812 12.15625 -9.625 C 12.082031 -10.25 11.960938 -10.878906 11.796875 -11.515625 C 11.640625 -12.160156 11.472656 -12.742188 11.296875 -13.265625 C 11.117188 -13.796875 11 -14.125 10.9375 -14.25 L 10.40625 -13.6875 L 4.375 -3.28125 C 4.332031 -3.238281 4.242188 -3.164062 4.109375 -3.0625 C 3.972656 -2.957031 3.820312 -2.847656 3.65625 -2.734375 C 3.488281 -2.628906 3.316406 -2.523438 3.140625 -2.421875 C 2.960938 -2.316406 2.832031 -2.242188 2.75 -2.203125 C 2.070312 -1.929688 1.566406 -1.960938 1.234375 -2.296875 C 0.910156 -2.640625 0.742188 -3.179688 0.734375 -3.921875 C 0.722656 -4.671875 0.835938 -5.578125 1.078125 -6.640625 C 1.328125 -7.703125 1.675781 -8.820312 2.125 -10 C 2.582031 -11.175781 3.113281 -12.363281 3.71875 -13.5625 C 4.332031 -14.757812 5 -15.863281 5.71875 -16.875 C 6.445312 -17.894531 7.203125 -18.769531 7.984375 -19.5 C 8.773438 -20.238281 9.570312 -20.738281 10.375 -21 C 10.769531 -20.875 10.972656 -20.707031 10.984375 -20.5 C 10.992188 -20.300781 10.890625 -20.082031 10.671875 -19.84375 C 10.453125 -19.601562 10.15625 -19.34375 9.78125 -19.0625 C 9.414062 -18.789062 9.039062 -18.523438 8.65625 -18.265625 C 8.269531 -18.003906 7.910156 -17.757812 7.578125 -17.53125 C 7.253906 -17.300781 7.039062 -17.097656 6.9375 -16.921875 C 6.425781 -15.816406 5.898438 -14.769531 5.359375 -13.78125 C 4.816406 -12.789062 4.328125 -11.800781 3.890625 -10.8125 C 3.460938 -9.820312 3.128906 -8.804688 2.890625 -7.765625 C 2.660156 -6.722656 2.613281 -5.59375 2.75 -4.375 L 3.28125 -4.953125 C 4.050781 -5.878906 4.753906 -6.941406 5.390625 -8.140625 C 6.023438 -9.335938 6.601562 -10.539062 7.125 -11.75 C 7.644531 -12.957031 8.125 -14.109375 8.5625 -15.203125 C 9.007812 -16.304688 9.421875 -17.226562 9.796875 -17.96875 C 10.179688 -18.707031 10.550781 -19.203125 10.90625 -19.453125 C 11.257812 -19.703125 11.609375 -19.570312 11.953125 -19.0625 C 12.304688 -18.5625 12.671875 -17.617188 13.046875 -16.234375 C 13.429688 -14.847656 13.832031 -12.90625 14.25 -10.40625 C 14.351562 -10.488281 14.554688 -10.640625 14.859375 -10.859375 C 15.171875 -11.078125 15.5 -11.300781 15.84375 -11.53125 C 16.1875 -11.769531 16.515625 -11.988281 16.828125 -12.1875 C 17.148438 -12.382812 17.375 -12.515625 17.5 -12.578125 C 17.601562 -12.617188 17.789062 -12.640625 18.0625 -12.640625 C 18.332031 -12.640625 18.507812 -12.617188 18.59375 -12.578125 C 18.507812 -12.203125 18.273438 -11.765625 17.890625 -11.265625 C 17.503906 -10.773438 17.082031 -10.304688 16.625 -9.859375 C 16.175781 -9.421875 15.757812 -9.039062 15.375 -8.71875 C 15 -8.394531 14.800781 -8.222656 14.78125 -8.203125 C 14.78125 -7.984375 14.773438 -7.664062 14.765625 -7.25 C 14.753906 -6.832031 14.734375 -6.347656 14.703125 -5.796875 C 14.671875 -5.253906 14.632812 -4.6875 14.59375 -4.09375 C 14.550781 -3.507812 14.507812 -2.941406 14.46875 -2.390625 C 14.425781 -1.847656 14.382812 -1.367188 14.34375 -0.953125 L 14.25 0 C 14.207031 0.269531 14.050781 0.765625 13.78125 1.484375 C 13.519531 2.210938 13.191406 3.03125 12.796875 3.9375 C 12.398438 4.84375 11.9375 5.742188 11.40625 6.640625 C 10.882812 7.546875 10.328125 8.296875 9.734375 8.890625 C 9.148438 9.492188 8.535156 9.867188 7.890625 10.015625 C 7.253906 10.171875 6.617188 9.929688 5.984375 9.296875 Z M 7.65625 3.84375 C 7.632812 4.007812 7.617188 4.296875 7.609375 4.703125 C 7.597656 5.117188 7.59375 5.554688 7.59375 6.015625 C 7.59375 6.484375 7.597656 6.925781 7.609375 7.34375 C 7.617188 7.757812 7.632812 8.046875 7.65625 8.203125 C 8.769531 7.734375 9.691406 6.953125 10.421875 5.859375 C 11.160156 4.765625 11.71875 3.550781 12.09375 2.21875 C 12.476562 0.882812 12.707031 -0.472656 12.78125 -1.859375 C 12.851562 -3.242188 12.785156 -4.453125 12.578125 -5.484375 C 11.972656 -4.984375 11.394531 -4.359375 10.84375 -3.609375 C 10.300781 -2.859375 9.804688 -2.054688 9.359375 -1.203125 C 8.921875 -0.359375 8.550781 0.503906 8.25 1.390625 C 7.957031 2.273438 7.757812 3.09375 7.65625 3.84375 Z M 7.65625 3.84375" transform="translate(284.543 129.89)"/></g></g></g><path stroke-linecap="round" transform="matrix(3.73874 0 0 4 10.321 116.315)" fill="none" d="M 0.500256 0.000383559 L 16.151425 0.000383559" stroke="#000"/><path stroke-linecap="round" transform="matrix(3.73874 0 0 4 302.238 117.722)" fill="none" d="M 0.499562 0.0000718793 L 16.150731 0.0000718793" stroke="#000"/></svg>